<?xml version="1.0" standalone="no"?>
<!DOCTYPE svg PUBLIC "-//W3C//DTD SVG 20010904//EN"
 "http://www.w3.org/TR/2001/REC-SVG-20010904/DTD/svg10.dtd">
<svg version="1.0" xmlns="http://www.w3.org/2000/svg"
 width="750.000000pt" height="755.000000pt" viewBox="0 0 750.000000 755.000000"
 preserveAspectRatio="xMidYMid meet">

<g transform="translate(0.000000,755.000000) scale(0.100000,-0.100000)"
fill="#000000" stroke="none">
<path d="M0 7535 c0 -13 154 -15 1324 -15 963 0 1325 -3 1328 -11 2 -7 35 -12
79 -14 42 -1 91 -6 109 -10 23 -5 35 -3 41 6 4 7 11 10 15 6 12 -12 -5 -21
-54 -28 l-47 -6 45 -2 c33 -1 41 -4 30 -11 -8 -5 -28 -10 -45 -11 l-30 -2 28
-4 c32 -5 34 -14 7 -38 -20 -18 -25 -41 -14 -69 5 -12 10 -14 19 -6 10 9 15 1
20 -32 4 -24 11 -46 16 -49 11 -7 17 -195 6 -205 -4 -5 -17 -3 -27 4 -24 15
-50 16 -50 2 0 -5 10 -10 22 -10 24 0 91 -47 84 -59 -3 -4 -38 -2 -78 5 -81
15 -177 18 -194 6 -23 -16 -31 -44 -21 -73 12 -32 60 -57 124 -64 23 -3 66
-11 95 -19 64 -16 67 -26 42 -132 -12 -54 -20 -71 -29 -64 -8 7 -11 -5 -12
-43 0 -29 -3 -61 -6 -72 -3 -11 -6 -27 -6 -35 -1 -13 -2 -13 -11 0 -7 11 -10
2 -10 -33 0 -32 -4 -46 -12 -45 -7 2 -12 -5 -10 -14 2 -10 -1 -18 -6 -18 -6 0
-12 -7 -15 -14 -4 -10 -1 -13 9 -9 19 7 18 -12 -2 -32 -9 -9 -14 -25 -11 -35
3 -11 2 -19 -1 -17 -8 4 -86 40 -152 70 -63 29 -126 33 -151 11 -40 -36 -19
-100 43 -130 56 -28 137 -64 142 -64 19 0 56 -22 51 -30 -5 -8 -11 -7 -21 1
-9 8 -14 8 -14 1 0 -6 7 -15 16 -20 13 -7 14 -13 5 -31 -7 -12 -16 -19 -21
-16 -4 3 -6 -4 -3 -15 3 -11 -1 -27 -8 -36 -12 -14 -14 -14 -25 0 -11 15 -12
15 -18 0 -7 -19 2 -37 15 -29 5 4 9 -1 9 -9 0 -9 -3 -16 -7 -16 -9 0 -33 -48
-33 -66 0 -7 -11 -21 -24 -32 -18 -14 -22 -22 -14 -30 8 -8 7 -13 -5 -18 -9
-3 -17 -12 -17 -20 0 -13 -25 -61 -56 -110 -13 -19 -22 -23 -43 -18 -14 4 -31
13 -37 20 -6 8 -16 14 -21 14 -5 0 -17 8 -27 18 -38 43 -146 48 -146 7 0 -8
-4 -15 -9 -15 -4 0 -7 -8 -6 -17 5 -50 19 -70 81 -108 94 -58 98 -63 78 -111
-9 -21 -19 -41 -23 -44 -3 -3 -10 -13 -16 -22 -19 -32 -145 -193 -182 -233
-21 -23 -53 -59 -70 -80 -18 -22 -33 -34 -33 -28 0 15 -153 164 -186 181 -22
12 -30 11 -60 -3 -59 -28 -52 -91 16 -148 16 -14 30 -30 30 -35 0 -6 23 -29
50 -52 54 -45 62 -65 29 -73 -15 -4 -20 -11 -16 -21 4 -9 2 -16 -4 -16 -9 0
-45 -31 -144 -125 -18 -16 -47 -41 -64 -55 -29 -22 -50 -40 -138 -114 -22 -18
-23 -18 -43 5 -10 13 -22 33 -26 44 -4 10 -13 25 -21 33 -7 8 -31 40 -53 72
-47 69 -80 85 -125 60 -23 -13 -31 -25 -33 -51 -2 -29 8 -50 63 -128 36 -50
65 -99 65 -107 0 -7 5 -13 11 -12 19 5 22 -21 4 -28 -9 -4 -45 -26 -81 -50
-67 -45 -175 -109 -222 -132 -15 -7 -34 -17 -42 -22 -44 -27 -160 -83 -164
-79 -2 2 -28 63 -56 134 -28 72 -56 135 -61 141 -17 21 -81 25 -101 7 -19 -17
-25 -91 -9 -109 5 -5 18 -36 29 -69 11 -33 30 -82 41 -108 27 -62 26 -63 -6
-72 -15 -3 -50 -17 -78 -29 -67 -30 -251 -94 -294 -101 -19 -3 -42 -10 -52
-15 -10 -6 -29 -10 -42 -10 -21 0 -26 6 -30 38 -9 67 -46 227 -57 244 -5 10
-10 24 -10 33 0 38 -90 39 -115 1 -11 -17 -12 -33 -5 -76 6 -30 14 -80 19
-110 5 -30 11 -62 14 -70 3 -8 8 -34 11 -57 6 -40 5 -42 -24 -48 l-30 -7 0
-1364 0 -1365 22 -29 c12 -17 30 -30 40 -30 14 0 18 -8 18 -36 0 -19 4 -33 9
-30 4 3 6 -5 4 -18 -3 -13 0 -27 6 -30 17 -11 13 -39 -4 -32 -10 3 -15 1 -14
-7 1 -6 -2 -20 -6 -31 -5 -11 -4 -26 3 -37 11 -17 10 -18 -15 -8 -24 9 -30 7
-45 -11 -15 -18 -18 -42 -18 -124 0 -91 2 -105 22 -126 l22 -23 -22 -18 c-27
-21 -29 -39 -3 -32 10 3 22 0 25 -6 9 -13 36 -15 36 -2 0 5 -9 11 -20 14 -19
5 -29 37 -12 37 14 0 57 -64 59 -89 2 -27 13 -42 13 -18 0 24 37 21 43 -3 3
-11 11 -20 17 -20 8 0 10 8 7 21 -3 12 -1 19 6 16 6 -2 14 -14 18 -28 6 -23 7
-23 15 -4 4 11 28 39 53 62 25 24 40 43 33 43 -7 0 -21 -9 -32 -20 -11 -11
-24 -20 -30 -20 -5 0 -10 -4 -10 -10 0 -5 -9 -10 -20 -10 -25 0 -25 3 4 34 13
15 34 26 48 26 30 0 58 28 58 58 0 12 4 22 9 22 9 0 56 68 56 82 0 3 4 10 9
15 5 5 6 3 2 -4 -4 -7 -2 -13 4 -13 7 0 21 -12 32 -26 22 -27 36 -23 43 14 3
18 -1 22 -23 22 -19 0 -30 8 -39 25 -6 15 -7 27 -2 31 5 3 7 10 4 15 -4 5 -1
9 4 9 6 0 16 -9 23 -20 14 -22 28 -26 28 -9 0 19 31 36 57 31 18 -3 21 -7 11
-13 -9 -6 -7 -9 10 -9 24 0 31 24 10 34 -10 5 -10 7 -1 12 17 8 16 44 -1 44
-18 0 -39 26 -34 42 3 8 14 3 32 -15 15 -15 31 -27 36 -27 6 0 10 -9 10 -20 0
-11 5 -20 10 -20 6 0 10 7 10 15 0 8 7 15 15 15 8 0 15 3 15 8 0 4 10 12 23
17 13 6 23 21 25 37 2 15 14 34 29 43 24 16 26 16 44 -4 23 -25 24 -33 3 -29
-25 4 -29 -22 -5 -29 15 -4 21 -13 21 -34 0 -15 5 -31 10 -34 6 -3 10 -15 10
-26 0 -14 7 -19 30 -19 30 0 42 21 20 35 -5 3 -10 15 -10 26 0 10 5 19 10 19
6 0 10 -9 10 -20 0 -26 34 -60 60 -60 14 0 20 7 20 22 0 12 7 30 17 40 15 17
15 18 0 18 -10 0 -17 -7 -17 -16 0 -19 -24 -13 -27 7 -2 8 7 25 18 39 l21 25
24 -28 c19 -23 31 -27 74 -27 45 0 50 2 51 23 1 12 1 26 0 30 -1 5 3 6 9 2 6
-3 8 -10 5 -15 -3 -5 9 -5 27 1 40 11 38 11 38 0 0 -5 -13 -11 -29 -14 -15 -3
-31 -14 -35 -24 -3 -10 -9 -24 -12 -30 -3 -8 1 -13 10 -13 9 0 16 -6 16 -12 0
-23 -16 -39 -33 -32 -24 9 -56 -33 -57 -73 0 -22 -5 -33 -15 -33 -8 0 -22 -11
-31 -25 -10 -15 -24 -25 -35 -23 -26 4 -24 -16 2 -22 43 -10 30 -38 -13 -31
-5 0 -8 -3 -8 -9 0 -5 8 -10 18 -10 9 0 24 -5 32 -11 13 -9 13 -10 0 -6 -8 2
-25 -4 -36 -15 -17 -15 -29 -18 -59 -12 -36 7 -37 7 -15 19 20 11 21 13 4 19
-10 4 -21 1 -25 -6 -7 -10 -11 -10 -21 0 -9 9 -9 12 5 12 9 0 17 5 17 10 0 6
12 9 27 8 19 -2 28 2 31 13 2 13 -6 18 -35 21 -43 6 -54 1 -33 -12 12 -8 11
-10 -6 -10 -12 0 -24 -7 -28 -15 -8 -23 -46 -19 -46 5 0 11 -4 20 -8 20 -17 0
-21 -13 -11 -32 7 -14 7 -23 -1 -33 -16 -19 -3 -40 15 -25 10 8 14 7 18 -2 3
-9 9 -8 19 6 9 12 20 16 28 11 9 -6 6 -11 -11 -21 -13 -7 -32 -13 -41 -14 -10
0 -18 -6 -18 -14 0 -8 -20 -19 -47 -26 -27 -7 -57 -19 -68 -27 -25 -17 -35
-17 -35 2 0 8 5 15 10 15 6 0 10 7 10 15 0 8 -2 15 -5 15 -9 0 -45 -40 -45
-50 0 -20 -46 -40 -79 -34 -23 5 -31 3 -29 -6 3 -15 -53 -30 -84 -22 -33 8 1
21 41 14 30 -4 34 -3 25 9 -6 8 -10 29 -8 46 1 29 -1 33 -24 33 l-26 0 22 16
c12 8 39 17 59 19 83 7 97 18 95 71 -1 20 3 45 9 56 8 14 6 25 -5 43 -9 14
-16 32 -16 40 0 12 -6 15 -22 9 -20 -6 -21 -5 -10 8 10 13 10 17 -3 22 -11 4
-19 -3 -26 -22 -9 -23 -7 -30 13 -47 24 -22 51 -82 42 -96 -3 -5 -14 -9 -24
-9 -10 0 -21 -8 -24 -17 -3 -10 -3 3 -1 29 l4 47 -36 -2 c-25 -1 -48 -12 -76
-38 -39 -34 -41 -38 -38 -90 1 -29 7 -57 13 -60 6 -4 8 -11 4 -17 -3 -6 -2
-13 3 -16 5 -4 12 3 16 14 9 27 25 25 22 -2 -3 -29 -50 -40 -157 -38 -96 1
-217 -24 -240 -50 -10 -11 -22 -20 -29 -20 -8 0 -11 -51 -11 -175 l0 -175 233
0 234 0 13 25 c13 25 30 33 30 15 0 -5 -4 -10 -10 -10 -5 0 -10 -7 -10 -15 0
-21 95 -21 103 0 4 8 2 17 -3 20 -6 4 -10 14 -9 23 0 12 4 9 11 -8 6 -14 10
-31 9 -37 -1 -9 17 -13 64 -13 55 0 65 3 65 18 1 16 1 16 14 0 11 -16 31 -18
140 -18 115 0 127 2 125 18 -3 33 1 40 33 51 26 9 35 8 50 -5 24 -22 23 -34
-2 -34 -11 0 -20 -7 -20 -15 0 -12 15 -15 79 -15 61 0 80 3 85 15 3 10 -1 15
-11 15 -14 0 -14 2 3 15 24 18 72 18 148 0 33 -8 64 -11 69 -8 6 3 7 1 3 -5
-4 -7 -17 -10 -30 -6 -14 3 -27 -1 -35 -10 -12 -14 -7 -16 48 -16 48 0 61 3
61 15 0 10 11 15 35 15 40 0 45 -7 13 -20 -15 -5 89 -9 280 -9 200 -1 301 2
297 9 -3 6 -14 10 -23 10 -28 0 1 18 41 25 41 8 46 1 20 -27 -16 -17 -10 -18
162 -18 l177 0 -6 36 c-4 19 -9 41 -11 47 -14 37 39 49 147 34 47 -7 63 -5 97
12 22 12 43 26 47 33 15 24 2 100 -36 218 -22 66 -30 147 -17 180 21 57 40
132 44 176 5 48 4 52 -26 73 -38 27 -142 41 -165 22 -10 -8 -26 -9 -57 -2 -24
6 -69 11 -99 11 -102 1 -126 22 -77 69 20 18 28 20 52 11 31 -12 146 -11 166
0 7 5 23 3 35 -2 20 -9 27 -7 43 13 l20 24 1 -41 c0 -52 23 -66 44 -26 l15 27
1 -43 c0 -37 4 -44 26 -53 34 -12 58 -4 89 29 30 33 45 21 22 -17 -22 -38 -22
-61 1 -61 12 0 23 13 32 35 14 36 30 47 30 20 0 -7 -7 -18 -16 -23 -9 -5 -16
-13 -16 -18 -1 -5 -4 -18 -9 -29 -7 -18 -38 -249 -54 -400 -3 -33 -11 -81 -17
-107 -10 -40 -9 -50 4 -65 8 -10 18 -26 21 -36 4 -9 10 -16 14 -15 4 0 22 -4
38 -11 19 -8 49 -10 82 -6 28 3 102 6 164 6 64 1 120 5 130 12 13 8 24 8 42
-2 39 -21 138 -19 179 3 46 25 48 35 48 252 0 188 1 195 58 248 69 66 47 173
-40 196 -21 6 -131 10 -250 9 -257 -3 -342 5 -371 31 -24 23 -25 21 28 39 22
8 54 24 70 36 43 32 70 38 85 19 33 -39 134 -70 215 -65 22 2 62 14 88 27 27
13 53 24 58 24 4 0 34 -12 65 -27 45 -21 59 -34 70 -62 8 -20 19 -44 24 -53 6
-10 10 -38 10 -63 0 -45 38 -125 60 -125 5 0 16 -13 24 -29 12 -22 15 -72 16
-221 2 -175 0 -194 -17 -210 -10 -10 -79 -49 -153 -86 l-135 -69 94 -3 c91 -3
96 -2 165 34 39 20 76 40 81 44 6 5 36 -4 70 -21 100 -49 184 -38 262 34 29
26 106 33 266 23 31 -2 59 0 62 3 2 4 21 6 42 5 130 -11 288 -11 307 -1 78 45
85 158 11 208 -43 29 -44 42 -6 70 16 12 32 30 34 41 4 15 13 19 39 16 l33 -3
-4 -70 c-2 -38 -8 -81 -13 -94 -11 -31 9 -115 33 -137 16 -14 77 -26 197 -40
44 -4 105 19 131 50 22 27 40 18 47 -21 11 -63 27 -73 111 -73 l73 0 0 -35 0
-35 1020 0 1020 0 0 1307 0 1306 -29 26 c-42 38 -141 154 -141 166 0 5 12 20
27 33 15 12 53 48 85 78 54 51 58 59 58 100 0 72 -30 61 -153 -56 -38 -36 -72
-66 -77 -68 -14 -5 -140 185 -140 211 0 14 26 38 62 59 13 7 44 28 71 47 36
27 47 41 47 62 0 27 -15 39 -48 39 -10 0 -54 -25 -99 -55 -46 -30 -86 -55 -90
-55 -5 0 -16 17 -25 38 -9 20 -31 67 -47 104 -17 36 -31 75 -31 85 0 13 24 28
90 57 59 25 90 44 91 55 5 63 -29 77 -105 43 -114 -51 -117 -52 -121 -39 -19
50 -45 143 -45 156 0 9 -5 22 -11 28 -6 6 -9 21 -7 34 3 20 14 25 83 42 91 22
105 30 105 62 0 41 -24 51 -88 36 -31 -8 -73 -16 -93 -18 l-35 -5 -13 121 c-7
66 -10 125 -6 130 3 6 38 11 76 11 86 0 109 11 109 50 0 42 -24 51 -119 43
l-81 -6 0 127 0 127 96 -3 c83 -3 97 -1 109 15 17 24 8 57 -20 67 -12 5 -55
12 -95 16 l-73 7 7 69 c5 57 14 105 32 175 3 12 68 1 110 -19 31 -14 95 -6
108 15 19 30 -6 50 -100 82 -82 28 -89 32 -86 55 1 14 6 34 11 45 5 11 19 52
31 90 12 39 26 74 30 78 4 5 48 -12 97 -37 79 -39 92 -43 114 -32 17 8 24 20
24 41 0 28 -7 34 -97 79 l-96 49 16 41 c14 37 89 186 98 195 2 2 45 -26 95
-63 96 -69 117 -76 143 -50 27 26 19 52 -26 84 -24 17 -51 37 -61 45 -9 8 -21
15 -25 15 -5 0 -23 15 -40 33 l-32 33 37 52 c21 29 54 75 73 102 19 27 40 50
47 50 6 0 33 -23 60 -51 26 -29 62 -66 78 -83 l30 -31 3 70 c2 49 -1 73 -10
80 -8 5 -33 31 -56 56 l-43 47 56 58 55 58 0 768 0 768 -3750 0 c-3327 0
-3750 -2 -3750 -15z m4274 -30 c4 -11 -2 -15 -20 -15 -32 0 -84 -30 -84 -47 0
-18 -27 -16 -34 2 -3 8 -13 15 -21 15 -9 0 -14 4 -11 9 3 5 -5 11 -17 15 -34
8 -446 10 -488 1 -20 -4 -39 -3 -42 2 -6 10 -65 9 -164 -2 -47 -6 -63 -4 -63
5 0 7 -6 10 -14 7 -7 -3 -19 0 -25 6 -6 6 -11 7 -11 2 0 -6 -26 -11 -58 -13
-36 -1 -61 -8 -68 -18 -10 -13 -12 -13 -18 1 -4 10 -19 15 -51 15 -33 0 -45 4
-45 15 0 13 75 15 614 15 536 0 615 -2 620 -15z m696 7 c0 -5 -23 -51 -50
-103 -28 -52 -76 -143 -107 -204 -32 -60 -62 -118 -68 -127 -5 -9 -36 -68 -69
-130 -65 -126 -129 -247 -188 -356 -22 -40 -60 -113 -84 -162 -56 -108 -71
-124 -108 -110 -79 30 -206 -1 -290 -70 l-48 -40 -52 29 c-28 16 -69 39 -91
52 -67 38 -336 188 -410 229 -281 154 -280 153 -277 185 2 17 10 35 18 41 24
19 115 26 174 13 61 -13 180 -6 191 12 12 20 70 21 85 1 11 -16 44 -17 411
-19 437 -2 485 2 507 46 31 60 19 149 -23 174 -15 9 -33 27 -41 41 -12 23 -11
31 13 79 33 65 34 82 1 142 -29 56 -28 89 3 93 12 2 27 9 33 17 16 19 -4 55
-30 55 -11 0 -25 7 -32 15 -7 9 -21 24 -32 35 -29 29 -12 41 50 34 51 -6 56
-5 61 15 5 21 9 21 229 21 123 0 224 -4 224 -8z m1510 -6 c0 -8 13 -24 29 -35
24 -17 34 -19 53 -11 49 23 78 41 78 51 0 5 48 9 110 9 91 0 110 -3 110 -15 0
-8 8 -23 18 -33 20 -20 122 -226 122 -246 0 -8 -63 -40 -147 -76 -195 -83
-201 -88 -188 -131 5 -15 16 -19 54 -19 26 0 51 4 57 9 5 5 52 26 104 46 52
20 107 43 122 51 27 14 58 10 58 -8 0 -6 7 -24 14 -41 16 -34 42 -114 70 -212
10 -33 22 -70 27 -83 19 -47 12 -70 -23 -77 -18 -4 -88 -20 -154 -36 -67 -16
-127 -29 -134 -29 -22 0 -50 -31 -50 -55 0 -41 36 -49 131 -27 138 33 243 57
253 57 5 0 13 -13 18 -30 13 -45 57 -396 52 -410 -4 -9 -52 -14 -177 -17 -95
-3 -180 -9 -189 -13 -23 -9 -23 -49 -1 -71 15 -15 33 -16 158 -10 77 3 157 9
178 12 l37 7 0 -114 c0 -126 7 -107 -104 -262 l-49 -69 -46 6 c-136 18 -187
18 -204 1 -20 -20 -21 -26 -4 -49 14 -19 76 -35 137 -36 62 -1 67 -11 37 -74
-15 -31 -27 -61 -27 -65 0 -5 -4 -11 -8 -13 -11 -4 -52 -94 -52 -112 0 -8 -4
-17 -9 -21 -5 -3 -17 -29 -27 -58 -9 -28 -18 -53 -19 -54 -1 -2 -23 4 -49 13
-61 21 -96 9 -96 -33 0 -31 19 -47 68 -57 17 -4 34 -11 36 -15 2 -3 -2 -33
-11 -66 -27 -108 -44 -189 -54 -255 -16 -99 -11 -96 -84 -55 -46 25 -75 35
-98 33 -29 -3 -32 -6 -32 -38 0 -32 4 -37 54 -62 30 -15 72 -39 94 -54 l39
-26 -7 -131 c-4 -73 -12 -141 -17 -152 -22 -41 -93 -134 -104 -134 -6 -1 -59
36 -118 82 -157 120 -161 123 -191 103 -53 -35 -32 -59 198 -231 26 -20 47
-38 47 -41 0 -4 -29 -40 -64 -83 -82 -97 -246 -259 -246 -243 0 11 -33 47
-177 199 -33 35 -48 44 -70 41 -24 -3 -28 -8 -31 -38 -2 -32 6 -44 103 -147
58 -61 105 -115 105 -118 0 -13 -49 -54 -175 -150 -159 -120 -170 -126 -184
-112 -6 6 -11 15 -11 19 0 5 -31 56 -70 113 -38 57 -70 109 -70 115 0 23 -29
8 -39 -21 -16 -46 -13 -81 9 -109 11 -14 20 -29 20 -33 0 -4 17 -34 38 -65 21
-31 41 -62 45 -68 4 -7 -10 -23 -34 -39 -62 -41 -289 -155 -308 -155 -9 0 -22
-5 -29 -12 -7 -7 -15 -8 -20 -3 -9 10 -59 128 -97 230 -21 56 -25 60 -57 63
-22 2 -39 -3 -48 -12 -13 -17 -12 -22 35 -131 62 -143 78 -186 69 -194 -10 -9
-184 -71 -199 -71 -6 0 -21 17 -34 37 -19 30 -22 44 -17 82 3 25 11 50 16 55
6 6 10 23 10 39 0 16 14 69 30 119 30 89 30 90 30 318 0 261 1 257 -87 440
-31 63 -79 174 -108 246 -88 218 -161 371 -295 619 -59 111 -76 132 -107 140
-15 3 -50 17 -78 30 -27 13 -117 40 -200 60 -82 20 -184 47 -225 60 -41 13
-100 30 -130 37 -53 13 -55 14 -52 43 13 133 13 225 -2 274 -14 47 -14 56 0
91 9 21 14 51 12 67 -3 24 -8 28 -38 31 -34 3 -36 6 -54 65 -30 103 -40 128
-51 137 -26 21 -138 44 -234 48 -90 3 -111 0 -160 -19 -52 -22 -102 -52 -160
-97 -23 -19 -24 -21 -19 -158 3 -104 9 -147 21 -171 21 -40 22 -57 2 -49 -50
19 -62 -48 -16 -86 15 -14 42 -30 58 -37 21 -9 42 -34 73 -89 24 -42 57 -92
73 -111 24 -29 28 -39 22 -70 -16 -88 -71 -175 -138 -219 -23 -15 -69 -53
-103 -85 -33 -31 -68 -63 -77 -70 -8 -6 -38 -43 -66 -80 l-50 -69 0 -561 c1
-662 -1 -649 95 -798 26 -41 73 -107 106 -148 39 -49 56 -77 49 -84 -11 -11
-119 26 -251 86 -47 21 -102 45 -123 54 -43 19 -43 22 9 117 73 130 87 167 78
195 -6 15 -18 27 -31 29 -26 4 -60 -44 -123 -175 -25 -51 -51 -92 -58 -93 -17
0 -80 37 -217 127 -122 80 -145 97 -145 107 0 4 22 35 48 69 136 176 136 175
105 209 -9 10 -23 18 -32 18 -17 0 -61 -42 -79 -77 -7 -12 -18 -27 -25 -35 -7
-7 -30 -37 -51 -65 -21 -29 -43 -53 -49 -53 -7 0 -32 16 -57 36 -70 55 -260
236 -260 247 0 6 48 56 107 112 97 91 106 103 99 128 -5 23 -12 27 -40 27 -28
0 -47 -14 -127 -90 -52 -49 -99 -89 -105 -90 -28 -1 -264 297 -264 334 0 7 21
26 48 43 26 17 80 52 120 77 64 41 73 50 70 73 -4 32 -27 48 -59 40 -13 -4
-71 -38 -129 -76 -118 -79 -117 -79 -161 5 -22 41 -22 46 -8 57 125 94 249
194 334 271 117 106 255 244 280 279 11 16 34 39 52 51 33 23 55 51 236 306
53 75 157 237 157 246 0 3 15 28 33 57 47 74 156 300 197 407 11 30 25 65 30
78 23 51 30 70 51 137 12 39 25 75 29 80 5 6 11 28 15 50 14 84 20 92 84 98
32 2 71 12 88 20 30 16 31 16 224 -91 107 -60 214 -120 239 -134 25 -14 70
-39 100 -55 30 -17 87 -49 127 -72 40 -22 76 -41 80 -41 4 -1 26 -14 47 -29
l40 -28 -3 -95 c-2 -83 0 -101 23 -149 14 -31 44 -75 67 -98 l42 -42 -21 -43
c-30 -59 -28 -91 4 -113 23 -15 29 -15 52 -2 13 8 36 34 49 59 l24 45 87 0
c73 0 96 4 143 26 30 15 70 40 88 58 l32 31 49 -26 c73 -38 119 -23 120 37 0
28 -18 48 -67 73 l-33 17 0 99 c0 110 -17 164 -72 228 -15 18 -28 38 -28 44 0
6 23 54 52 107 95 178 105 196 196 371 50 96 118 225 152 285 33 61 73 135 88
165 15 30 29 57 32 60 6 6 80 147 119 227 l26 52 683 0 c585 1 682 -1 682 -13z
m-2107 -13 c-13 -2 -33 -2 -45 0 -13 2 -3 4 22 4 25 0 35 -2 23 -4z m-1274
-85 c4 -13 11 -72 15 -133 11 -179 26 -154 45 75 l6 75 86 3 86 3 8 -108 c4
-59 10 -144 14 -188 l6 -80 8 80 c17 167 26 251 30 270 3 18 13 20 82 23 l78
3 -6 -58 c-4 -32 -13 -119 -21 -193 -8 -74 -20 -182 -26 -240 -6 -58 -13 -110
-15 -116 -5 -16 -183 -18 -201 -3 -8 6 -14 26 -14 45 0 18 -5 68 -11 110 -10
65 -14 75 -24 60 -7 -9 -16 -60 -20 -114 -4 -54 -12 -100 -19 -104 -13 -9
-142 -10 -173 -2 -19 5 -23 13 -23 43 0 19 -6 83 -14 141 -8 58 -22 170 -31
250 -10 80 -19 148 -22 153 -11 18 14 27 78 27 63 0 70 -2 78 -22z m778 -39
c2 -56 1 -57 -29 -63 -17 -3 -41 -6 -54 -6 -22 0 -24 -4 -24 -49 l0 -50 48 -3
47 -3 0 -55 0 -55 -45 -5 -45 -5 -3 -67 -3 -68 56 0 56 0 -3 -62 -3 -63 -132
0 c-73 0 -133 3 -133 8 0 4 0 142 0 307 l0 301 133 -3 132 -3 2 -56z m203
-183 l0 -245 48 -3 47 -3 5 -58 c3 -32 3 -60 0 -62 -3 -2 -62 -3 -130 -2
l-125 2 -3 308 -2 307 80 0 80 0 0 -244z m293 -1 l2 -240 53 -3 52 -3 0 -58
c0 -44 -4 -60 -16 -65 -20 -8 -218 -8 -238 0 -14 5 -16 42 -16 310 l0 305 81
-3 81 -3 1 -240z m-684 -1373 l29 -73 -31 -20 c-18 -10 -35 -19 -40 -19 -4 0
-26 -13 -49 -30 -22 -16 -47 -30 -55 -30 -7 0 -13 -6 -13 -14 0 -17 -5 -21
-44 -30 -23 -6 -27 -4 -23 8 4 9 2 18 -3 21 -6 4 -10 18 -10 33 1 26 1 26 15
8 14 -19 15 -19 15 5 0 31 -9 42 -25 29 -8 -7 -16 -2 -25 15 -7 14 -19 25 -26
25 -7 0 -14 6 -17 13 -2 6 -8 9 -12 4 -5 -4 2 -17 14 -29 13 -11 31 -39 42
-62 26 -58 15 -66 -92 -66 -88 0 -89 0 -89 -24 0 -29 -10 -38 -29 -27 -17 11
-54 135 -55 185 l-1 39 49 2 c35 2 54 8 65 23 9 10 32 22 53 25 20 3 55 18 79
34 35 23 52 28 95 26 28 -2 69 4 90 11 49 17 54 13 93 -82z m111 -66 c0 -16
-18 -31 -27 -22 -8 8 5 36 17 36 5 0 10 -6 10 -14z m-103 -108 c6 -7 13 -23
16 -36 4 -18 0 -25 -21 -33 -14 -5 -35 -9 -46 -7 -18 3 -16 6 12 18 33 15 44
40 17 40 -8 0 -15 7 -15 15 0 18 24 20 37 3z m79 -19 c17 -18 19 -37 19 -148
0 -110 -3 -132 -23 -170 -13 -26 -19 -53 -16 -66 6 -26 -63 -165 -102 -205
l-24 -24 -55 29 c-70 38 -145 94 -159 120 -6 11 -31 43 -56 70 -25 28 -67 92
-93 143 -40 78 -45 95 -35 111 12 19 12 19 23 -2 9 -18 18 -21 55 -18 25 1 52
6 60 11 8 4 34 10 58 14 42 6 42 6 42 -24 0 -20 4 -29 11 -25 5 4 9 19 7 33
-2 17 2 26 10 25 17 -4 15 36 -3 43 -23 9 -18 29 9 42 28 12 38 4 51 -38 4
-14 18 -43 30 -66 l22 -40 -23 -21 c-36 -32 -30 -46 13 -28 20 8 37 14 37 13
1 -2 7 -13 14 -25 17 -32 16 -33 -22 -33 -19 0 -38 -5 -41 -10 -3 -6 -17 -7
-30 -4 -16 4 -37 -2 -60 -16 -43 -27 -52 -22 -31 18 11 21 25 31 51 36 35 7
44 19 24 31 -5 4 -19 -1 -30 -11 -18 -16 -19 -16 -19 4 0 28 -14 28 -27 0 -34
-70 -57 -198 -33 -183 6 3 10 18 10 32 0 22 2 24 16 12 9 -7 23 -14 32 -16 9
-1 22 -9 28 -18 11 -15 15 -15 43 -1 16 9 44 16 61 16 16 0 30 5 30 11 0 6 11
24 24 39 22 26 25 27 45 14 38 -27 24 7 -22 56 -52 54 -110 147 -103 165 2 7
28 16 57 20 77 11 91 22 84 68 -8 43 10 50 41 16z m-166 -63 c0 -3 -4 -8 -10
-11 -5 -3 -10 -1 -10 4 0 6 5 11 10 11 6 0 10 -2 10 -4z m-310 -34 c0 -10 5
-23 12 -30 9 -9 7 -12 -9 -12 -25 0 -47 25 -39 45 8 21 36 19 36 -3z m-116
-37 c15 -23 15 -25 -2 -25 -21 0 -62 27 -62 41 0 20 48 8 64 -16z m233 19 c-3
-3 -12 -4 -19 -1 -8 3 -5 6 6 6 11 1 17 -2 13 -5z m236 -191 c-7 -2 -21 -2
-30 0 -10 3 -4 5 12 5 17 0 24 -2 18 -5z m-73 -13 c0 -5 -11 -10 -24 -10 -14
0 -28 5 -31 10 -4 6 7 10 24 10 17 0 31 -4 31 -10z m52 -26 c-25 -17 -132 -36
-132 -23 0 12 39 31 49 24 5 -3 20 -1 33 4 12 6 34 10 48 10 l24 1 -22 -16z
m298 -59 c21 -19 45 -73 37 -81 -3 -3 -17 2 -31 11 -32 21 -33 13 -4 -20 16
-19 24 -22 35 -14 8 7 13 8 13 1 0 -5 11 -20 25 -33 13 -13 25 -27 25 -31 0
-4 14 -27 30 -52 37 -54 52 -113 27 -103 -11 4 -14 2 -11 -8 3 -7 -14 -31 -39
-54 -73 -68 -61 -87 68 -109 28 -5 43 -14 52 -32 7 -14 13 -19 13 -12 0 25 17
11 29 -25 12 -39 29 -244 37 -438 3 -60 9 -123 14 -140 11 -36 11 -171 0 -200
l-8 -20 -7 20 c-21 59 -24 74 -30 115 -3 25 -10 56 -14 70 -5 14 -16 52 -26
85 -10 33 -22 65 -26 70 -4 6 -10 35 -14 65 -4 30 -11 60 -15 65 -4 6 -13 30
-20 55 -6 25 -19 61 -27 80 -8 19 -19 44 -24 55 -18 43 -39 111 -39 131 0 11
-7 35 -16 53 -9 18 -14 43 -11 57 2 13 0 27 -4 30 -5 3 -9 20 -9 38 0 17 -5
37 -12 44 -8 8 -8 15 2 27 10 12 10 19 2 27 -7 7 -12 23 -12 38 0 25 -24 109
-42 143 -5 10 -6 22 -3 27 3 4 -8 22 -25 38 -16 17 -30 36 -30 43 0 16 67 5
90 -16z m265 -65 c83 -20 190 -54 238 -75 84 -36 88 -39 82 -64 -24 -93 -19
-655 6 -703 6 -10 9 -49 8 -86 -2 -64 31 -274 50 -317 5 -11 17 -48 27 -83 9
-35 21 -65 26 -68 4 -3 8 -15 8 -27 0 -12 7 -35 16 -52 9 -16 23 -52 31 -80 8
-27 19 -55 24 -61 5 -6 10 -23 11 -38 1 -14 6 -26 10 -26 4 0 8 -5 8 -11 0 -7
15 -32 33 -58 19 -25 53 -83 77 -129 24 -46 58 -100 76 -120 17 -20 35 -52 39
-71 4 -19 23 -55 41 -81 19 -26 34 -50 34 -53 0 -2 33 -65 73 -138 41 -74 96
-174 123 -224 59 -109 57 -105 120 -207 83 -135 97 -166 89 -207 -9 -48 -45
-153 -58 -169 -18 -23 -106 -183 -113 -205 -13 -42 -64 -79 -64 -46 0 6 -17
28 -37 48 -86 83 -223 259 -223 284 0 10 -4 17 -8 17 -5 0 -17 19 -28 43 -10
23 -21 44 -24 47 -10 9 -50 108 -50 124 0 9 -3 16 -7 16 -10 0 -33 49 -33 70
0 9 -4 20 -9 26 -5 5 -21 43 -36 84 -14 41 -31 81 -38 89 -6 7 -12 19 -12 25
-2 27 -18 66 -27 66 -6 0 -8 13 -4 33 4 22 3 27 -3 17 -8 -12 -11 -11 -16 5
-10 30 -20 56 -42 105 -11 25 -46 113 -77 195 -32 83 -64 168 -73 190 -8 22
-22 58 -30 80 -8 22 -19 48 -24 57 -5 10 -9 24 -9 31 0 7 -16 50 -35 97 -56
131 -78 225 -69 290 10 74 5 406 -7 505 -5 44 -14 141 -19 215 -6 74 -14 143
-20 152 -5 10 -10 26 -10 36 0 32 -50 64 -103 67 -15 1 -35 9 -45 19 -16 17
-16 17 3 14 12 -2 19 2 17 10 -1 7 7 22 18 34 28 31 27 101 -5 165 -13 28 -28
53 -32 55 -10 4 -64 75 -80 105 -13 25 -6 37 16 27 9 -3 84 -23 166 -44z
m-394 -90 c-2 -43 -9 -50 -60 -57 -47 -6 -50 1 -18 45 13 17 32 52 43 78 l19
46 8 -38 c5 -22 8 -55 8 -74z m-351 0 c0 -5 5 -10 11 -10 6 0 29 -13 52 -28
23 -16 50 -32 60 -35 25 -9 17 -28 -21 -50 -30 -18 -32 -18 -54 -1 -23 17 -68
98 -68 122 0 7 5 12 10 12 6 0 10 -4 10 -10z m-112 -149 c-3 -53 -1 -79 6 -78
6 1 12 -9 14 -23 2 -14 8 -29 13 -34 5 -6 9 -17 9 -25 0 -9 6 -27 13 -41 7
-14 19 -45 27 -70 7 -25 17 -50 22 -56 20 -27 61 -217 69 -319 4 -60 13 -135
20 -165 7 -30 12 -68 13 -85 0 -16 3 -32 7 -35 10 -9 39 -103 39 -129 0 -14 6
-43 14 -66 30 -90 35 -109 32 -113 -3 -2 -21 29 -40 70 -39 78 -53 102 -76
128 -18 19 -72 127 -95 190 -10 25 -21 52 -25 60 -4 9 -11 31 -15 50 -4 19
-11 40 -16 45 -4 6 -10 22 -12 35 -3 14 -12 38 -20 54 -9 16 -19 47 -22 68 -6
33 -1 48 40 118 26 44 45 87 43 97 -2 11 -21 24 -53 34 -27 9 -59 27 -72 39
-23 22 -31 50 -14 50 4 0 9 23 10 52 0 30 6 55 13 60 10 6 10 8 1 8 -15 0 -17
46 -3 55 6 3 10 18 10 32 0 23 33 73 48 73 3 0 3 -36 0 -79z m1306 -110 c42
-77 76 -142 76 -145 0 -3 27 -62 60 -131 33 -69 60 -129 60 -133 0 -4 12 -36
26 -72 15 -36 29 -74 33 -85 4 -11 35 -76 69 -145 81 -162 92 -202 92 -328 0
-57 4 -111 9 -120 15 -29 -7 -200 -40 -312 -6 -19 -17 -60 -24 -92 -13 -59
-21 -78 -33 -78 -12 0 -85 117 -125 200 -40 82 -66 150 -74 193 -3 15 -9 27
-14 27 -5 0 -6 12 -3 26 5 21 4 25 -6 19 -9 -5 -11 -4 -6 4 4 6 0 18 -8 27
-27 26 -28 57 -6 116 28 76 72 133 120 158 73 37 43 63 -34 30 -91 -40 -97
-44 -92 -56 3 -7 -6 -27 -20 -45 -27 -37 -31 -35 -9 7 8 16 15 37 15 46 0 9 4
19 10 23 5 3 9 18 10 33 1 108 13 259 21 274 11 21 4 38 -16 38 -13 0 -23 -29
-31 -90 -6 -48 -23 -138 -34 -180 -5 -19 -12 -48 -15 -63 -8 -41 -22 -25 -30
36 -4 28 -11 59 -16 69 -9 16 -30 243 -33 353 -1 33 -5 67 -9 75 -9 22 -16
471 -7 465 4 -2 42 -67 84 -144z m-1415 52 c-4 -21 -15 -63 -23 -93 -25 -84
-6 -160 38 -160 9 0 16 -4 16 -10 0 -5 18 -10 40 -10 29 0 40 -4 40 -15 0 -8
-7 -15 -15 -15 -8 0 -14 -3 -13 -7 4 -12 -28 -54 -35 -47 -9 10 -20 -105 -14
-149 4 -23 15 -60 27 -82 23 -45 26 -71 8 -78 -8 -2 -9 -8 -4 -13 5 -5 11 -4
13 4 9 24 23 11 29 -28 4 -22 13 -45 20 -51 8 -6 14 -21 14 -33 0 -11 7 -34
15 -50 8 -15 15 -35 15 -43 0 -8 13 -33 29 -56 15 -23 30 -46 32 -52 2 -5 25
-42 52 -82 26 -39 47 -76 47 -82 0 -9 25 -76 65 -176 14 -35 55 -148 75 -208
13 -39 21 -100 26 -190 3 -72 11 -152 16 -177 13 -60 29 -182 33 -250 2 -30 9
-82 15 -115 6 -33 17 -109 23 -170 7 -60 15 -115 19 -121 13 -19 12 -286 -1
-404 -9 -81 -9 -116 -2 -118 17 -6 13 -27 -9 -47 -20 -18 -20 -17 -20 20 l0
38 -25 -27 c-30 -32 -53 -33 -61 -2 -3 13 -14 26 -24 29 -12 3 -20 19 -26 48
-4 24 -9 47 -10 52 -1 4 -2 12 -3 17 0 6 -10 10 -20 10 -14 0 -21 9 -26 31 -5
20 -10 27 -15 20 -8 -14 -20 84 -20 165 0 29 -5 65 -11 81 -19 47 -41 1010
-25 1065 7 22 5 29 -9 35 -11 4 -22 0 -30 -11 -11 -15 -15 -12 -37 26 -53 92
-99 206 -113 278 -18 97 -52 235 -64 257 -24 47 -61 154 -61 175 0 9 -4 18 -8
20 -10 4 -72 153 -72 172 0 8 -6 19 -12 23 -18 11 -68 107 -68 129 0 11 -14
43 -30 73 -17 30 -30 65 -30 78 0 12 -4 23 -10 23 -5 0 -10 7 -10 15 0 8 -5
24 -12 35 -19 29 40 106 169 223 23 20 45 37 48 37 4 0 13 7 21 15 25 24 32
17 23 -22z m-252 -459 c-3 -18 2 -33 17 -49 13 -13 29 -43 36 -67 8 -24 21
-54 31 -68 25 -38 115 -237 135 -300 23 -73 28 -88 47 -132 9 -20 19 -60 23
-87 4 -28 11 -51 16 -51 6 0 8 -14 4 -35 -5 -26 -4 -35 6 -33 7 2 13 -8 13
-22 1 -27 23 -99 35 -115 4 -5 25 -44 45 -85 21 -41 51 -94 67 -118 22 -35 28
-54 28 -100 0 -31 -4 -72 -9 -89 -6 -20 -6 -35 0 -38 5 -4 9 -26 9 -51 0 -42
-1 -44 -30 -44 -17 0 -38 4 -48 9 -9 4 -34 16 -55 27 -22 10 -49 31 -60 47
-12 15 -54 61 -93 100 -74 75 -148 174 -189 252 -50 93 -54 130 -54 560 -1
406 4 515 21 515 6 0 8 -12 5 -26z m-2832 -1674 c3 -5 -1 -10 -9 -10 -8 0 -18
5 -21 10 -3 6 1 10 9 10 8 0 18 -4 21 -10z m-58 -32 c-3 -8 -6 -5 -6 6 -1 11
2 17 5 13 3 -3 4 -12 1 -19z m38 -9 c4 -6 14 -8 22 -5 8 3 11 2 8 -4 -3 -5 5
-14 17 -21 12 -7 28 -18 35 -25 7 -7 18 -14 24 -16 20 -7 -52 -107 -81 -114
-14 -3 -33 -10 -43 -15 -15 -8 -20 -6 -24 10 -3 12 -9 21 -14 21 -5 0 -9 6 -9
14 0 7 -9 20 -21 27 -16 11 -19 20 -14 42 4 15 14 27 24 27 24 1 52 25 54 49
1 23 12 27 22 10z m166 -26 c39 -18 47 -36 28 -63 -8 -12 -9 -12 -7 5 3 27 -9
45 -31 45 -10 0 -24 7 -31 15 -16 20 -5 19 41 -2z m-6 -53 c-3 -5 -2 -10 3
-10 5 0 4 -23 -2 -52 -11 -53 -11 -53 -17 -18 -3 19 -1 41 4 48 6 7 5 17 -3
27 -10 12 -9 15 4 15 10 0 14 -4 11 -10z m196 -68 c-7 -14 -5 -21 11 -31 25
-16 35 -7 17 15 -12 15 -12 16 1 11 8 -4 23 -10 33 -13 12 -4 16 -13 12 -28
-2 -11 -2 -15 1 -8 8 16 44 15 44 -2 0 -8 -16 -16 -42 -20 -27 -4 -38 -10 -30
-15 7 -4 -2 -7 -23 -7 -30 1 -37 5 -41 26 -3 14 -10 35 -15 48 -12 30 -12 30
9 35 31 8 33 7 23 -11z m-231 -26 c0 -3 -4 -8 -10 -11 -5 -3 -10 -1 -10 4 0 6
5 11 10 11 6 0 10 -2 10 -4z m177 -18 c-3 -8 -6 -5 -6 6 -1 11 2 17 5 13 3 -3
4 -12 1 -19z m-170 -40 c-3 -8 -6 -5 -6 6 -1 11 2 17 5 13 3 -3 4 -12 1 -19z
m-37 -3 c0 -8 -4 -15 -10 -15 -5 0 -10 7 -10 15 0 8 5 15 10 15 6 0 10 -7 10
-15z m197 -7 c-3 -8 -6 -5 -6 6 -1 11 2 17 5 13 3 -3 4 -12 1 -19z m220 16
c-3 -3 -12 -4 -19 -1 -8 3 -5 6 6 6 11 1 17 -2 13 -5z m-507 -14 c0 -5 -4 -10
-10 -10 -5 0 -10 5 -10 10 0 6 5 10 10 10 6 0 10 -4 10 -10z m550 -10 c0 -5
-7 -10 -16 -10 -8 0 -12 5 -9 10 3 6 10 10 16 10 5 0 9 -4 9 -10z m-94 -27
c-7 -7 -26 7 -26 19 0 6 6 6 15 -2 9 -7 13 -15 11 -17z m-419 -48 c0 -61 -10
-71 -25 -26 -8 23 -7 32 4 42 8 6 14 18 14 25 0 8 2 14 4 14 2 0 3 -25 3 -55z
m473 45 c0 -5 7 -10 15 -10 8 0 15 -4 15 -10 0 -19 -38 -10 -43 10 -3 11 -1
20 4 20 5 0 9 -4 9 -10z m86 -7 l26 -16 -29 -14 c-20 -10 -22 -12 -6 -9 19 3
20 1 11 -25 -8 -23 -13 -27 -23 -19 -8 6 -11 18 -8 26 3 8 -1 14 -8 14 -9 1
-8 4 4 11 21 12 22 29 2 29 -8 0 -15 5 -15 10 0 15 17 12 46 -7z m-508 -51
l-4 -27 -12 29 c-15 35 -7 72 9 43 6 -10 9 -30 7 -45z m309 32 c-9 -9 -28 6
-21 18 4 6 10 6 17 -1 6 -6 8 -13 4 -17z m-143 -50 c20 -19 20 -28 1 -44 -13
-10 -15 -9 -15 9 0 12 -6 21 -15 21 -16 0 -20 12 -8 23 10 11 20 8 37 -9z
m413 -26 c-3 -8 -6 -5 -6 6 -1 11 2 17 5 13 3 -3 4 -12 1 -19z m-167 -3 c-9
-10 -9 -15 -1 -15 6 0 11 -12 11 -26 0 -33 -23 -27 -25 7 -2 22 10 49 22 49 3
0 0 -7 -7 -15z m-330 -15 c0 -5 -5 -10 -11 -10 -5 0 -7 5 -4 10 3 6 8 10 11
10 2 0 4 -4 4 -10z m-90 -26 c0 -31 -23 -28 -28 4 -2 15 2 22 12 22 11 0 16
-9 16 -26z m587 10 c2 -6 -3 -14 -11 -17 -8 -3 -16 2 -19 14 -4 15 -1 19 10
17 9 -2 18 -8 20 -14z m-507 -39 c0 -8 -4 -15 -10 -15 -5 0 -10 7 -10 15 0 8
5 15 10 15 6 0 10 -7 10 -15z m0 -55 c0 -11 -4 -20 -10 -20 -5 0 -10 9 -10 20
0 11 5 20 10 20 6 0 10 -9 10 -20z m440 11 c0 -6 -4 -13 -10 -16 -5 -3 -10 1
-10 9 0 9 5 16 10 16 6 0 10 -4 10 -9z m190 -11 c0 -5 -4 -10 -10 -10 -5 0
-10 5 -10 10 0 6 5 10 10 10 6 0 10 -4 10 -10z m108 -8 c2 -6 -13 -14 -35 -17
-21 -3 -48 -10 -60 -15 -12 -5 -25 -5 -28 -1 -8 14 45 43 71 38 13 -2 24 0 24
5 0 13 23 5 28 -10z m-408 -44 c0 -6 8 -7 17 -4 18 7 33 -9 33 -36 0 -15 -9
-18 -55 -18 -48 0 -55 3 -55 19 0 11 -3 26 -6 34 -3 10 1 17 13 19 25 5 53 -2
53 -14z m77 0 c-3 -8 -6 -5 -6 6 -1 11 2 17 5 13 3 -3 4 -12 1 -19z m178 2 c3
-5 -1 -10 -9 -10 -9 0 -16 5 -16 10 0 6 4 10 9 10 6 0 13 -4 16 -10z m3059
-42 c4 -24 6 -45 6 -47 -1 -2 4 -8 12 -12 11 -7 10 -11 -2 -19 -14 -9 -7 -14
13 -11 4 1 21 -27 37 -61 23 -46 27 -64 19 -75 -13 -15 -39 -18 -39 -3 0 5 -7
7 -15 4 -8 -4 -15 -16 -15 -28 -1 -20 -1 -20 -11 -2 -9 14 -8 20 1 26 7 4 9
13 5 20 -4 7 -8 26 -7 43 0 16 -6 36 -14 44 -11 11 -11 19 -3 35 6 11 7 18 1
15 -5 -4 -10 20 -11 59 -2 72 12 80 23 12z m-3759 6 c14 -9 25 -25 25 -35 0
-11 5 -19 10 -19 6 0 10 -33 10 -80 0 -47 4 -80 10 -80 6 0 10 6 10 13 0 6 4
19 10 27 7 12 12 11 30 -5 22 -20 22 -20 51 13 16 17 35 32 43 32 30 0 61
-100 36 -115 -6 -3 -10 -15 -10 -26 0 -15 -7 -19 -33 -19 -25 0 -39 7 -55 30
-21 27 -26 30 -62 24 -53 -9 -70 7 -70 62 0 48 -10 56 -25 22 -14 -31 -33 -33
-46 -4 -9 20 -8 33 5 65 9 23 12 41 7 41 -14 0 -21 43 -9 57 14 17 34 16 63
-3z m720 2 c18 12 28 13 44 5 11 -6 28 -11 37 -11 10 0 29 -11 43 -24 24 -22
71 -44 71 -33 0 3 -7 17 -15 33 -18 36 -14 39 26 19 30 -16 32 -16 25 0 -6 18
59 -30 85 -61 12 -16 12 -17 -3 -11 -10 3 -18 2 -18 -3 0 -6 11 -10 24 -10 28
0 43 -15 24 -24 -8 -4 -9 -8 -3 -11 29 -15 37 -24 30 -34 -5 -9 -10 -9 -21 0
-8 6 -15 9 -15 5 -10 -46 -21 -64 -62 -93 l-44 -30 -21 24 c-27 31 -28 43 -2
43 12 0 20 -7 21 -17 0 -10 3 -13 5 -6 3 7 11 10 18 7 14 -5 31 25 20 35 -4 3
-9 0 -11 -6 -5 -15 -33 -17 -33 -3 0 6 5 10 10 10 6 0 10 9 10 20 0 11 -7 20
-15 20 -8 0 -15 6 -15 13 0 7 -11 14 -25 15 -22 2 -23 -1 -15 -22 5 -13 6 -27
3 -30 -4 -3 -7 -16 -8 -28 -1 -18 -8 -22 -38 -24 -40 -1 -65 -14 -28 -14 17 0
21 -4 17 -15 -4 -10 1 -15 15 -15 11 0 22 -7 26 -16 3 -8 12 -13 20 -10 8 3
11 2 8 -4 -3 -5 -1 -17 5 -27 5 -10 14 -30 20 -45 14 -40 74 -40 116 0 16 16
37 31 47 35 9 4 22 18 27 32 7 17 14 23 26 18 13 -5 15 -2 9 15 -5 16 -2 22 9
22 9 0 16 -5 16 -11 0 -6 6 -9 13 -6 6 2 11 11 9 18 -2 8 14 -3 35 -25 25 -25
34 -40 25 -43 -24 -9 8 -33 34 -27 19 5 24 2 23 -12 0 -11 -3 -14 -6 -6 -2 6
-9 12 -15 12 -6 0 -3 -9 7 -20 10 -11 24 -20 30 -20 17 0 40 -29 30 -38 -4 -4
-10 -1 -12 6 -7 17 -43 15 -43 -3 0 -8 7 -15 15 -15 8 0 15 -2 15 -4 0 -2 3
-13 6 -23 5 -14 4 -15 -4 -4 -15 20 -64 -1 -56 -24 7 -17 54 -21 54 -4 0 5 5
7 10 4 6 -3 8 -19 5 -36 -4 -21 -1 -29 9 -29 7 0 13 7 12 16 -2 23 20 29 28 8
4 -11 -1 -22 -14 -31 -11 -8 -20 -20 -20 -28 0 -7 -16 -19 -35 -25 -35 -11
-42 -20 -28 -34 14 -14 8 -41 -14 -59 -21 -17 -22 -17 -50 10 -15 16 -28 32
-28 37 0 5 -7 12 -15 16 -8 4 -25 12 -38 19 -13 6 -27 9 -32 6 -17 -10 -11
-35 8 -35 10 0 23 -5 30 -12 9 -9 12 -8 12 5 0 17 11 22 23 11 11 -11 -5 -34
-25 -34 -20 0 -21 -15 -2 -64 4 -10 1 -16 -9 -16 -9 0 -18 8 -22 19 -3 10 -14
26 -25 36 -14 12 -17 25 -13 46 3 18 1 29 -6 29 -6 0 -11 -15 -11 -34 0 -67
-31 -54 -34 14 -2 38 -23 69 -48 71 -10 0 -10 2 0 6 6 2 12 16 12 29 0 13 6
24 13 24 8 0 22 9 32 20 11 13 31 20 52 20 30 0 34 3 31 23 -2 12 -14 28 -28
35 -21 11 -26 11 -36 -2 -17 -23 -55 -20 -61 5 -4 15 -8 17 -14 8 -6 -10 -11
-10 -25 2 -13 11 -18 11 -21 2 -6 -18 -21 -16 -50 7 -37 29 -55 25 -96 -22
-25 -29 -37 -37 -37 -25 0 9 -4 17 -10 17 -20 0 -9 29 13 35 49 14 67 28 56
42 -6 7 -9 22 -6 33 3 11 2 20 -1 21 -43 5 -66 19 -44 26 22 8 3 20 -23 15
-17 -3 -24 -9 -21 -18 3 -9 -2 -14 -13 -14 -11 0 -27 -3 -37 -7 -12 -5 -15 -3
-9 6 5 9 2 12 -11 9 -11 -2 -27 6 -36 17 -17 20 -17 20 -18 -2 0 -13 -5 -23
-12 -23 -6 0 -8 3 -5 6 4 4 -1 19 -10 34 -25 43 -11 74 42 95 25 9 52 14 60
12 7 -3 19 0 25 8 17 20 3 55 -22 55 -22 0 -78 30 -78 41 0 4 12 22 27 39 22
27 28 29 35 16 8 -14 11 -14 33 0z m-591 -9 c16 -12 16 -14 -3 -31 -21 -19
-21 -19 -42 0 -19 17 -19 19 -3 31 10 7 21 13 24 13 3 0 14 -6 24 -13z m299
-54 c-7 -2 -19 -2 -25 0 -7 3 -2 5 12 5 14 0 19 -2 13 -5z m137 0 c0 -10 -20
-40 -20 -31 0 3 -3 13 -6 22 -4 11 -1 16 10 16 9 0 16 -3 16 -7z m-116 -48
c-1 -5 -11 -14 -23 -20 -16 -7 -21 -19 -21 -47 0 -21 -4 -38 -10 -38 -5 0 -10
11 -10 25 0 14 -5 25 -10 25 -20 0 -22 31 -4 51 19 21 80 24 78 4z m3235 -91
c1 -50 -1 -74 -8 -69 -12 7 -12 145 -1 145 4 0 8 -34 9 -76z m1133 39 c14 -21
51 -65 82 -98 30 -33 56 -65 56 -72 0 -7 9 -17 20 -23 11 -6 25 -20 31 -33 12
-21 11 -21 -7 -7 -79 61 -214 228 -214 264 0 13 8 5 32 -31z m-4484 -41 c2 -7
-3 -12 -11 -12 -9 0 -17 -10 -20 -22 -3 -22 -4 -22 -12 -4 -6 13 -5 21 3 24 7
2 12 10 12 19 0 17 22 13 28 -5z m3131 -26 c0 -6 -3 -5 -6 2 -8 19 -23 14 -23
-8 0 -11 5 -20 10 -20 6 0 10 -10 11 -22 0 -13 3 -17 6 -10 6 14 23 6 23 -11
0 -7 -12 -13 -26 -12 -18 0 -28 -6 -29 -17 -2 -9 -8 -24 -14 -35 -9 -15 -10
-12 -11 21 0 25 6 43 17 51 13 10 14 16 7 26 -21 27 -23 48 -7 65 15 15 18 15
30 -2 7 -10 13 -23 12 -28z m-2999 -50 c0 -20 7 -26 33 -31 57 -12 67 -16 61
-27 -4 -6 -6 -29 -6 -50 1 -22 -3 -48 -8 -58 -8 -15 -6 -21 10 -30 23 -12 27
-30 6 -30 -7 0 -16 9 -19 21 -3 12 -9 19 -14 16 -12 -7 -36 13 -52 45 -8 15
-17 25 -21 23 -5 -3 -11 3 -14 12 -4 10 -1 20 9 25 19 11 20 44 1 55 -7 4 -18
18 -25 31 -11 20 -9 22 14 22 20 0 25 -5 25 -24z m116 -13 c-10 -10 -19 5 -10
18 6 11 8 11 12 0 2 -7 1 -15 -2 -18z m-299 2 c8 -9 13 -19 10 -22 -6 -5 -37
21 -37 31 0 10 11 6 27 -9z m3603 -15 c11 -7 15 -28 15 -77 l0 -68 -40 0 c-22
0 -46 5 -54 10 -8 6 -16 8 -19 5 -8 -8 -33 73 -28 87 7 18 67 53 91 53 11 0
27 -5 35 -10z m-520 -75 c0 -70 -2 -75 -23 -80 -13 -4 -47 0 -76 7 -50 13 -54
16 -68 58 -14 41 -14 45 3 57 10 7 32 13 48 13 17 0 38 5 46 10 8 5 27 10 43
10 l27 0 0 -75z m317 53 c-3 -8 -6 -5 -6 6 -1 11 2 17 5 13 3 -3 4 -12 1 -19z
m-180 -20 c-3 -7 -5 -2 -5 12 0 14 2 19 5 13 2 -7 2 -19 0 -25z m-36 -11 c-8
-8 -11 -7 -11 4 0 20 13 34 18 19 3 -7 -1 -17 -7 -23z m-2841 9 c0 -8 7 -17
16 -20 9 -4 14 -9 11 -12 -8 -8 -47 19 -47 33 0 7 5 13 10 13 6 0 10 -6 10
-14z m-422 -2 c12 -4 22 -13 22 -22 0 -8 8 -21 18 -28 16 -13 16 -15 -7 -34
-18 -15 -19 -20 -7 -20 42 0 -5 -42 -49 -43 -19 -1 -35 -5 -35 -9 0 -4 -4 -8
-10 -8 -5 0 -10 13 -10 29 0 34 -23 61 -51 61 -12 0 -19 7 -19 20 0 13 7 20
19 20 10 0 29 9 42 20 25 20 48 24 87 14z m92 -14 c0 -5 -4 -10 -10 -10 -5 0
-10 5 -10 10 0 6 5 10 10 10 6 0 10 -4 10 -10z m300 -19 c6 -12 6 -22 1 -26
-10 -6 -14 -1 -24 28 -9 23 10 22 23 -2z m-640 -11 c0 -20 -25 -38 -36 -27 -8
7 15 47 26 47 6 0 10 -9 10 -20z m3143 13 c3 -5 8 -22 11 -39 l7 -31 -90 1
c-50 0 -91 4 -91 8 0 6 78 46 120 61 22 8 38 8 43 0z m454 1 c-3 -3 -12 -4
-19 -1 -8 3 -5 6 6 6 11 1 17 -2 13 -5z m-77 -14 c0 -5 -4 -10 -10 -10 -5 0
-10 5 -10 10 0 6 5 10 10 10 6 0 10 -4 10 -10z m-2708 -75 c-5 -27 -9 -30 -26
-16 -18 15 -9 43 13 39 10 -2 15 -11 13 -23z m-698 -21 c3 -7 -6 -20 -19 -28
-21 -14 -28 -14 -45 -4 -24 16 -26 37 -3 53 19 14 58 2 67 -21z m996 13 c0
-18 -34 -37 -51 -27 -15 10 -14 12 16 28 26 15 35 15 35 -1z m357 -7 c3 -11
10 -20 17 -20 6 0 17 -10 25 -21 11 -19 11 -21 -4 -15 -9 3 -21 6 -26 6 -5 0
-9 7 -9 15 0 8 -9 20 -20 27 -24 15 -26 28 -4 28 9 0 18 -9 21 -20z m1344 -15
c87 -38 100 -70 107 -260 6 -186 -7 -277 -46 -318 -40 -43 -75 -57 -138 -57
-73 0 -130 27 -164 77 -24 35 -25 44 -28 209 -5 208 5 268 51 312 18 17 43 35
57 41 38 15 123 13 161 -4z m2068 -8 c81 -41 86 -60 86 -302 0 -201 -1 -211
-23 -247 -67 -107 -269 -103 -322 6 -18 38 -20 61 -20 241 0 178 2 203 20 240
39 81 164 111 259 62z m-1545 -248 c-1 -234 -2 -249 -24 -293 -40 -84 -154
-112 -256 -64 -82 38 -84 45 -84 346 l0 262 80 0 80 0 2 -252 c3 -217 5 -253
18 -253 13 0 15 35 18 245 1 135 4 250 6 255 2 6 34 8 82 5 l79 -5 -1 -246z
m218 7 l3 -241 43 -3 42 -3 0 -60 0 -60 -127 3 -126 3 -1 300 0 300 69 5 c39
3 76 3 82 2 10 -3 13 -65 15 -246z m1628 -13 c0 -166 3 -244 11 -249 24 -14
29 29 28 261 l-1 240 87 3 88 3 -5 -260 c-5 -246 -7 -262 -28 -296 -28 -46
-85 -75 -147 -75 -70 0 -122 18 -153 52 -35 38 -39 74 -41 358 l-2 215 74 5
c44 3 77 1 81 -5 4 -5 8 -119 8 -252z m-3127 162 c4 -49 11 -121 15 -160 l8
-70 12 85 c6 47 15 119 19 160 l8 75 82 3 c97 3 90 15 98 -157 7 -181 24 -167
41 34 11 126 11 126 96 123 84 -3 78 14 58 -153 -20 -171 -41 -374 -44 -420
l-2 -30 -100 -3 -101 -3 -11 53 c-6 29 -14 81 -17 116 -4 34 -11 64 -15 67 -9
5 -30 -103 -30 -153 0 -17 -4 -42 -10 -56 -9 -25 -12 -26 -104 -26 l-94 0 -6
43 c-9 70 -35 295 -46 407 -6 57 -12 114 -14 126 -3 12 -2 25 2 29 3 3 38 4
77 3 l70 -3 8 -90z m1926 81 c59 -31 61 -43 61 -300 0 -129 -3 -242 -6 -251
-14 -35 -58 -45 -208 -45 l-145 0 -3 301 c-2 165 -1 303 1 305 2 2 65 4 138 4
97 0 142 -4 162 -14z m369 2 c7 -7 12 -23 12 -36 0 -32 21 -112 29 -112 4 0
14 35 22 78 l14 77 75 0 c62 0 74 -3 71 -15 -2 -8 -24 -82 -49 -165 -42 -137
-46 -161 -52 -285 l-5 -135 -75 0 -75 0 -6 130 c-5 110 -11 148 -42 245 -53
174 -65 219 -59 225 11 10 128 5 140 -7z m-3798 -7 c0 -6 -4 -13 -10 -16 -5
-3 -10 1 -10 9 0 9 5 16 10 16 6 0 10 -4 10 -9z m256 -6 c4 -8 13 -15 21 -15
10 0 13 -6 9 -16 -3 -9 -6 -20 -6 -26 0 -5 -11 0 -25 13 -25 24 -34 59 -15 59
6 0 13 -7 16 -15z m-166 -24 c-10 -35 -3 -46 18 -28 13 10 15 9 9 -5 -3 -10
-3 -18 1 -18 4 0 13 -9 19 -19 10 -16 9 -20 -3 -25 -9 -4 -19 3 -26 19 -6 14
-17 25 -25 25 -7 0 -13 4 -13 8 0 5 -9 18 -20 29 -16 18 -17 22 -5 27 8 3 15
1 15 -4 0 -6 5 -10 10 -10 6 0 10 7 10 15 0 8 4 15 9 15 6 0 6 -12 1 -29z
m-421 0 c12 -22 -7 -45 -31 -36 -8 3 -21 -1 -28 -10 -11 -13 -9 -15 9 -15 12
0 21 -6 21 -15 0 -11 -11 -15 -40 -15 -22 0 -40 -4 -40 -10 0 -5 18 -10 40
-10 34 0 40 -3 40 -20 0 -35 30 -72 54 -66 12 3 26 2 32 -2 15 -10 28 -52 15
-52 -21 0 -41 13 -34 23 4 7 0 8 -11 4 -10 -4 -20 -7 -22 -7 -2 0 -4 -6 -4
-14 0 -37 -140 -23 -161 17 -8 14 -5 18 21 24 l31 6 -7 64 c-6 60 -5 65 15 70
11 3 21 11 21 19 0 17 41 62 57 63 7 1 17 -8 22 -18z m1315 -17 c4 -10 1 -14
-6 -12 -15 5 -23 28 -10 28 5 0 13 -7 16 -16z m-624 -3 c0 -14 -25 -20 -52
-13 l-23 6 25 7 c36 10 50 10 50 0z m583 -16 c6 -14 -71 -75 -96 -75 -6 0 3
10 20 23 18 12 33 27 33 33 0 11 20 34 31 34 4 0 9 -7 12 -15z m-438 -25 c3
-5 1 -10 -4 -10 -6 0 -11 5 -11 10 0 6 2 10 4 10 3 0 8 -4 11 -10z m-17 -32
c-3 -7 -12 -14 -21 -16 -12 -2 -15 1 -11 12 7 19 38 22 32 4z m42 -38 c-6 -11
-18 -20 -28 -21 -9 0 -25 -2 -34 -4 -9 -2 -25 3 -35 11 -16 12 -12 13 30 7 26
-3 47 -2 46 3 0 5 2 20 6 33 7 20 9 21 17 7 5 -10 5 -23 -2 -36z m559 -16 c6
-15 28 -46 48 -71 26 -31 33 -47 25 -55 -15 -15 -32 -1 -32 28 0 28 -8 31 -26
7 -12 -17 -13 -17 -14 3 0 17 -7 23 -35 26 -19 2 -35 1 -35 -3 0 -4 -16 -7
-35 -6 l-35 1 52 48 c29 26 58 48 64 48 6 0 16 -12 23 -26z m-856 -11 c-7 -2
-19 -2 -25 0 -7 3 -2 5 12 5 14 0 19 -2 13 -5z m64 -25 c-2 -7 1 -20 8 -28 10
-12 9 -19 -6 -34 -17 -17 -19 -18 -19 -3 0 9 5 17 10 17 6 0 10 5 10 10 0 6
-12 10 -27 10 -22 0 -25 2 -13 10 8 5 11 10 5 10 -12 0 16 20 28 20 5 0 7 -6
4 -12z m668 -48 c23 19 28 6 10 -29 -19 -37 -35 -40 -35 -6 0 33 -28 33 -36 1
-4 -16 -11 -23 -20 -19 -8 3 -14 0 -14 -6 0 -6 -7 -11 -15 -11 -25 0 -17 17
19 39 19 12 37 29 41 39 6 16 7 16 20 -2 12 -16 17 -17 30 -6z m-181 -6 c4 -9
4 -19 1 -23 -8 -7 -38 12 -43 27 -6 19 35 14 42 -4z m256 -14 c-20 -12 -33 -1
-19 16 9 11 15 12 23 4 8 -8 7 -13 -4 -20z m-600 -15 c0 -24 -5 -35 -15 -35
-10 0 -15 11 -15 35 0 24 5 35 15 35 10 0 15 -11 15 -35z m-635 -9 c24 -20 28
-27 18 -37 -10 -10 -13 -10 -13 -1 0 7 -12 24 -26 37 -35 32 -18 32 21 1z
m171 5 c5 -5 29 -12 54 -15 25 -2 47 -5 49 -5 2 -1 -8 -10 -23 -22 -27 -21
-46 -18 -46 7 0 8 -4 13 -10 9 -5 -3 -18 3 -30 15 -11 11 -16 20 -12 20 4 0
12 -4 18 -9z m1120 -25 c-3 -31 -45 -85 -68 -86 -5 0 -8 -5 -8 -11 0 -21 -29
-39 -64 -39 -25 0 -36 -4 -36 -15 0 -11 11 -15 40 -15 40 0 40 0 40 -38 l0
-38 -42 0 c-36 1 -43 -2 -44 -19 -1 -11 -2 -26 -3 -33 -1 -7 -6 -10 -12 -6 -8
4 -7 9 2 15 9 5 10 9 2 9 -8 0 -11 40 -12 134 -2 152 0 155 71 128 46 -17 81
-10 105 23 25 33 32 31 29 -9z m2519 -62 c19 -41 51 -109 71 -151 20 -43 47
-92 59 -109 13 -16 25 -41 27 -54 3 -24 2 -25 -82 -26 -47 -1 -92 -3 -100 -3
-8 -1 -62 1 -120 4 -58 3 -176 5 -262 5 -145 0 -160 2 -178 20 -33 33 -25 45
41 56 33 6 62 6 65 2 3 -5 69 -7 147 -5 152 4 180 11 225 60 31 33 41 82 42
201 0 117 9 117 65 0z m-3954 31 c-2 -25 2 -37 14 -41 13 -6 14 -9 3 -15 -10
-7 -7 -11 10 -15 24 -7 26 -12 14 -32 -7 -9 -15 -7 -35 12 -14 13 -23 27 -20
30 4 3 -8 6 -26 6 -19 0 -34 -6 -37 -15 -3 -8 -23 -20 -43 -26 l-37 -11 25
-27 c14 -15 34 -30 44 -34 20 -7 18 -34 -2 -30 -6 2 -11 -4 -11 -12 0 -10 6
-12 18 -8 14 6 15 4 4 -9 -8 -10 -22 -13 -39 -10 -22 4 -25 2 -19 -13 4 -10
-10 -3 -34 19 -22 20 -44 36 -50 36 -16 0 1 29 21 35 16 5 18 10 8 21 -9 12
-6 19 16 38 15 13 24 29 21 35 -4 6 -3 11 1 11 8 0 21 21 45 73 14 30 28 36
28 11 0 -11 5 -14 16 -10 9 3 28 6 42 7 15 0 21 3 15 6 -7 2 -13 10 -13 16 0
7 4 7 12 -1 7 -7 11 -28 9 -47z m1530 43 c3 -34 -10 -57 -34 -58 -18 0 -18 32
-1 50 22 22 34 25 35 8z m-646 -8 c3 -5 -1 -10 -9 -10 -9 0 -16 5 -16 10 0 6
4 10 9 10 6 0 13 -4 16 -10z m-404 -28 c-7 -2 -18 1 -23 6 -8 8 -4 9 13 5 13
-4 18 -8 10 -11z m-31 -18 c10 -11 23 -14 53 -8 28 4 38 3 32 -5 -4 -7 -29
-11 -63 -9 -45 2 -57 7 -60 21 -4 21 21 23 38 1z m-186 -53 c10 -11 15 -25 11
-31 -10 -16 15 -41 35 -35 12 4 19 -1 24 -17 8 -32 8 -38 -4 -38 -5 0 -10 9
-10 20 0 12 -7 20 -17 20 -24 0 -58 38 -67 73 -8 32 4 35 28 8z m276 -1 c0 -5
-13 -10 -30 -10 -16 0 -30 5 -30 10 0 6 14 10 30 10 17 0 30 -4 30 -10z m350
0 c0 -5 -7 -10 -15 -10 -8 0 -15 5 -15 10 0 6 7 10 15 10 8 0 15 -4 15 -10z
m-403 -50 c-6 -11 -15 -20 -19 -20 -14 0 -8 -23 10 -36 9 -7 12 -14 6 -14 -6
0 -17 7 -24 15 -7 8 -19 15 -26 15 -8 0 -14 5 -14 10 0 6 4 10 9 10 5 0 14 14
20 31 9 26 13 29 31 19 17 -9 18 -14 7 -30z m321 1 c5 -30 -6 -71 -18 -71 -6
0 -10 23 -10 51 0 36 4 49 13 47 6 -3 13 -15 15 -27z m-88 -12 c0 -5 -4 -9
-10 -9 -5 0 -10 7 -10 16 0 8 5 12 10 9 6 -3 10 -10 10 -16z m-180 -9 c0 -13
-5 -18 -15 -14 -16 7 -19 17 -8 27 12 13 23 7 23 -13z m110 -16 c0 -20 -18
-17 -29 5 -9 16 -8 18 9 14 11 -3 20 -12 20 -19z m-560 6 c0 -5 -4 -10 -10
-10 -5 0 -10 5 -10 10 0 6 5 10 10 10 6 0 10 -4 10 -10z m1040 -109 c0 -30 6
-44 22 -55 14 -10 17 -16 9 -16 -8 0 -23 -7 -33 -17 -10 -9 -21 -13 -25 -9 -5
4 0 12 10 17 22 13 11 32 -14 24 -13 -5 -17 -2 -14 8 3 7 2 24 -3 38 -12 33
-5 49 24 49 21 0 24 -4 24 -39z m157 33 c-3 -3 -12 -4 -19 -1 -8 3 -5 6 6 6
11 1 17 -2 13 -5z m126 -1 c-7 -2 -19 -2 -25 0 -7 3 -2 5 12 5 14 0 19 -2 13
-5z m-1082 -36 c-16 -16 -26 0 -10 19 9 11 15 12 17 4 2 -6 -1 -17 -7 -23z
m1007 8 c-3 -12 -29 -8 -43 7 -7 6 -1 8 18 6 15 -2 26 -7 25 -13z m-420 -13
c3 -10 -10 -11 -46 -3 -2 1 0 6 3 12 9 13 37 8 43 -9z m-638 -12 c0 -5 -5 -10
-11 -10 -5 0 -7 5 -4 10 3 6 8 10 11 10 2 0 4 -4 4 -10z m1130 6 c0 -10 -33
-36 -46 -36 -34 0 -10 22 44 39 1 1 2 -1 2 -3z m-473 -22 c-3 -3 -12 -4 -19
-1 -8 3 -5 6 6 6 11 1 17 -2 13 -5z m-70 -31 c7 -19 -29 -24 -48 -7 -10 9 -16
20 -14 24 7 11 58 -3 62 -17z m1588 7 c8 -13 -13 -40 -31 -40 -14 0 -19 31 -7
43 10 10 31 8 38 -3z m2493 -12 c30 -30 8 -48 -50 -40 -45 5 -48 16 -10 36 33
19 45 19 60 4z m-4911 -10 c17 -22 24 -76 10 -81 -21 -7 -47 5 -47 21 0 13 3
12 20 -3 19 -18 20 -17 20 3 0 11 -4 23 -9 26 -12 8 -21 46 -11 46 4 0 12 -6
17 -12z m-241 -67 c-9 -16 -23 -31 -31 -35 -15 -5 -15 -8 -1 -21 19 -19 26
-19 26 0 0 8 5 15 11 15 7 0 9 -10 5 -25 -4 -15 -2 -25 5 -25 6 0 13 9 16 20
6 23 26 26 42 7 13 -17 5 -27 -22 -27 -11 0 -17 -5 -14 -12 3 -7 8 -21 12 -30
4 -10 3 -18 -3 -18 -14 0 -90 81 -108 115 -17 32 -17 35 -4 35 6 0 10 -7 10
-15 0 -23 18 -18 26 8 7 22 21 37 37 37 4 0 1 -13 -7 -29z m39 -39 c-11 -11
-25 15 -19 33 7 17 8 16 16 -5 5 -13 6 -25 3 -28z m1610 15 c68 -38 79 -75 83
-267 5 -205 -7 -268 -55 -310 -42 -37 -65 -43 -157 -38 -62 3 -79 7 -100 27
-53 50 -60 82 -61 266 0 239 13 286 91 328 45 25 150 22 199 -6z m396 12 c92
-31 112 -94 107 -337 -3 -198 -11 -225 -78 -269 -46 -32 -176 -33 -226 -2 -60
36 -64 57 -64 299 0 209 1 218 23 250 12 19 36 41 52 51 35 21 135 25 186 8z
m-801 -249 l5 -245 48 -3 47 -3 0 -60 0 -60 -131 3 -131 3 1 298 c0 163 3 302
6 307 4 7 36 10 78 8 l72 -3 5 -245z m1120 150 c3 -58 8 -87 12 -75 4 11 18
54 31 95 l24 75 71 2 c40 1 74 -2 77 -7 3 -5 -12 -64 -35 -130 -22 -67 -40
-131 -40 -143 0 -23 33 -143 69 -257 11 -36 21 -69 21 -73 0 -4 -39 -6 -87 -5
l-86 3 -14 67 c-7 36 -20 81 -28 100 -14 32 -14 29 -15 -70 l0 -103 -81 3 -80
3 1 300 c0 184 4 301 10 305 6 4 41 6 78 6 l67 -1 5 -95z m646 93 c6 -5 16
-53 22 -108 7 -55 19 -145 28 -200 31 -199 41 -290 34 -298 -4 -4 -40 -7 -81
-5 l-74 3 -5 50 c-4 42 -8 50 -25 50 -17 0 -21 -8 -25 -50 l-5 -50 -84 -3 -84
-3 7 43 c7 43 12 79 40 318 27 223 29 235 37 246 10 12 198 18 215 7z m412
-60 l3 -63 -46 0 -45 0 0 -245 0 -245 -85 0 -85 0 0 244 0 245 -42 3 -43 3 -3
49 c-2 27 -1 54 2 62 4 10 42 12 173 11 l168 -2 3 -62z m487 2 l0 -60 -43 -5
-42 -5 -5 -240 -5 -240 -78 0 -77 0 -3 243 -2 242 -45 0 -45 0 0 59 c0 48 3
60 18 64 9 3 87 4 172 3 l155 -1 0 -60z m186 58 c1 -4 3 -57 5 -116 1 -60 4
-111 7 -113 2 -3 11 -2 20 2 13 5 17 26 19 117 l3 112 80 0 80 0 0 -305 0
-305 -80 0 -80 0 -3 128 c-2 123 -4 128 -23 125 -19 -3 -20 -11 -22 -128 l-2
-125 -80 0 -80 0 -3 299 c-1 192 1 302 8 306 15 9 150 12 151 3z m528 -3 c8
-4 11 -27 9 -61 l-3 -54 -53 -3 -53 -3 3 -52 3 -52 53 -3 52 -3 0 -59 0 -59
-52 -3 -53 -3 -3 -62 c-3 -70 -3 -70 83 -75 l40 -3 0 -55 0 -55 -142 -3 -143
-3 0 305 c0 234 3 306 13 310 19 8 233 5 246 -4z m517 -13 c3 -13 4 -41 2 -63
-3 -38 -4 -39 -45 -42 -42 -3 -43 -4 -43 -40 -1 -20 -2 -129 -3 -242 l-2 -205
-80 0 -80 0 -3 243 -2 242 -45 0 -45 0 0 59 c0 48 3 60 18 64 9 3 86 5 169 6
152 1 153 1 159 -22z m197 4 c4 -4 6 -140 5 -302 l-3 -294 -82 -3 -83 -3 0
304 c0 167 3 306 6 310 8 8 147 -2 157 -12z m265 6 c6 -5 12 -21 12 -37 0 -45
23 -170 31 -170 4 0 10 26 13 58 4 31 10 77 14 102 l7 45 54 8 c29 5 78 6 108
2 l53 -6 -2 -302 -3 -302 -70 0 -70 0 -5 125 c-3 69 -8 118 -11 110 -4 -8 -12
-64 -20 -123 -14 -119 -17 -122 -90 -115 -34 3 -34 4 -42 63 -4 33 -13 98 -20
145 l-12 85 -5 -145 -5 -145 -72 -3 -73 -3 0 304 c0 167 2 306 6 309 8 9 187
4 202 -5z m585 6 c26 -4 27 -7 27 -64 l0 -59 -56 0 -55 0 3 -52 3 -53 53 -3
53 -3 -3 -57 -3 -57 -50 -5 -50 -5 0 -65 0 -65 60 -5 c60 -5 60 -5 63 -39 2
-19 1 -45 -3 -58 l-6 -24 -137 3 -137 3 -3 302 -2 302 62 4 c97 5 150 6 181 0z
m-6066 -79 c29 -8 51 -68 33 -89 -21 -25 -100 -12 -100 16 0 6 7 6 20 -1 17
-9 19 -8 13 7 -3 10 -10 24 -16 30 -12 16 -2 43 15 43 7 0 23 -3 35 -6z m803
-118 c0 -3 -4 -8 -10 -11 -5 -3 -10 -1 -10 4 0 6 5 11 10 11 6 0 10 -2 10 -4z
m-51 -62 c-9 -11 -15 -12 -23 -4 -8 8 -7 13 4 20 20 12 33 1 19 -16z m46 -4
c3 -5 1 -10 -4 -10 -6 0 -11 5 -11 10 0 6 2 10 4 10 3 0 8 -4 11 -10z m-85
-25 c0 -8 -7 -15 -15 -15 -8 0 -15 7 -15 15 0 8 7 15 15 15 8 0 15 -7 15 -15z
m35 -25 c3 -5 -1 -10 -9 -10 -9 0 -16 5 -16 10 0 6 4 10 9 10 6 0 13 -4 16
-10z m-117 -37 c-10 -12 -9 -17 5 -28 21 -15 22 -25 3 -25 -8 0 -16 -6 -19
-12 -2 -7 -8 -10 -12 -6 -4 4 -2 14 5 23 18 21 6 29 -19 14 -35 -23 -36 0 0
30 34 29 61 32 37 4z m192 -63 l-6 -75 -4 73 c-5 76 -3 99 9 85 4 -4 4 -42 1
-83z m-108 53 c7 -27 -2 -43 -23 -43 -22 0 -22 0 -9 34 11 30 26 34 32 9z
m-162 -47 c0 -7 -12 -16 -27 -19 l-28 -5 24 19 c28 23 31 23 31 5z m147 -22
c-3 -3 -12 -4 -19 -1 -8 3 -5 6 6 6 11 1 17 -2 13 -5z m-157 -44 c0 -5 -7 -10
-15 -10 -8 0 -15 5 -15 10 0 6 7 10 15 10 8 0 15 -4 15 -10z m-55 -17 c8 -11
32 -18 74 -21 43 -3 61 -8 61 -18 0 -10 -13 -14 -41 -14 -22 0 -38 4 -35 8 2
4 -15 14 -39 21 -42 12 -45 12 -71 -13 -16 -14 -25 -28 -22 -31 8 -9 48 13 48
25 0 19 33 10 56 -16 13 -14 24 -27 24 -30 0 -3 -24 -3 -52 0 l-53 5 40 -13
c22 -7 45 -12 50 -11 6 1 7 0 3 -2 -5 -3 -8 -14 -8 -24 0 -11 5 -17 10 -14 6
3 10 -3 10 -14 0 -18 -6 -21 -40 -21 -29 0 -40 4 -40 15 0 8 -6 15 -14 15 -17
0 -31 35 -20 51 5 8 -3 10 -25 7 -21 -3 -31 0 -31 9 0 7 6 13 13 13 9 0 9 2 0
8 -13 8 8 37 47 64 32 22 40 22 55 1z m240 -33 c-3 -5 -15 -10 -26 -10 -11 0
-17 5 -14 10 3 6 15 10 26 10 11 0 17 -4 14 -10z m-39 -44 c8 -8 14 -20 14
-27 0 -7 -7 -5 -16 7 -11 13 -17 15 -20 7 -9 -20 -24 -15 -24 7 0 23 25 27 46
6z m-326 -11 c0 -8 -9 -20 -20 -27 -11 -7 -20 -17 -20 -21 0 -5 -7 -15 -15
-23 -8 -9 -15 -25 -16 -37 l0 -22 -9 22 c-10 24 8 73 26 73 6 0 17 11 24 25
15 28 30 33 30 10z m-21 -96 c-18 -19 -26 -25 -18 -15 13 18 12 19 -3 13 -27
-10 -21 4 15 34 44 37 48 12 6 -32z m485 16 c3 -9 0 -15 -9 -15 -9 0 -12 6 -9
15 4 8 7 15 9 15 2 0 5 -7 9 -15z m856 -26 c0 -12 -67 -12 -75 0 -3 5 7 11 22
13 33 4 53 -1 53 -13z m-61 -35 c6 4 11 2 11 -4 0 -17 -33 -8 -37 10 -4 12 -3
13 5 1 5 -7 15 -10 21 -7z m-389 -4 c0 -5 -5 -10 -11 -10 -5 0 -7 5 -4 10 3 6
8 10 11 10 2 0 4 -4 4 -10z"/>
<path d="M6665 6171 c-55 -25 -75 -58 -75 -123 1 -57 15 -83 62 -107 30 -15
132 -11 149 6 6 6 8 33 3 72 l-7 61 -48 0 c-26 0 -50 -4 -53 -9 -10 -16 5 -41
25 -41 12 0 19 -7 19 -20 0 -15 -7 -20 -29 -20 -31 0 -45 12 -54 49 -13 52 37
99 92 88 29 -6 31 -5 31 23 0 17 -5 30 -12 31 -7 0 -24 2 -38 5 -14 2 -43 -5
-65 -15z"/>
<path d="M6501 6156 c-8 -9 -10 -32 -5 -65 4 -30 3 -51 -3 -51 -5 0 -28 27
-52 61 -38 54 -46 60 -74 57 l-32 -3 3 -105 c4 -111 13 -143 40 -138 13 2 18
17 22 61 3 31 8 58 12 60 4 1 24 -22 45 -52 39 -56 70 -75 93 -61 10 6 13 33
11 107 -1 54 -5 108 -8 121 -6 25 -34 29 -52 8z"/>
<path d="M6229 6128 c-2 -42 2 -112 9 -168 6 -50 9 -55 32 -55 24 0 25 3 28
65 1 36 -1 90 -5 120 -7 50 -11 55 -36 58 -22 3 -27 -1 -28 -20z"/>
<path d="M5985 6131 c-10 -4 -52 -6 -91 -3 -40 2 -89 1 -109 -2 -30 -6 -36
-11 -33 -29 2 -17 11 -23 36 -25 27 -3 32 -7 33 -30 7 -151 13 -168 53 -152
19 7 21 14 18 94 l-3 86 30 6 c17 4 31 12 32 18 0 6 7 -2 14 -19 8 -17 14 -64
15 -108 l0 -78 33 3 c26 2 32 7 33 28 3 73 1 70 43 70 40 0 40 0 43 -42 3 -38
6 -43 28 -43 l25 0 3 118 3 117 -36 0 c-35 0 -35 0 -35 -46 l0 -45 -41 3 c-38
3 -42 6 -45 32 -6 56 -11 61 -49 47z"/>
<path d="M5610 6111 c-93 -17 -111 -195 -23 -229 60 -24 106 -18 144 16 29 26
32 34 33 90 1 56 -2 64 -29 91 -33 32 -71 42 -125 32z m76 -76 c21 -32 11 -90
-16 -105 -24 -13 -54 0 -70 30 -36 68 44 139 86 75z"/>
<path d="M5446 6098 c-15 -8 -16 -19 -11 -69 4 -33 3 -59 -2 -59 -5 0 -19 17
-31 38 -27 47 -69 92 -87 92 -40 0 -45 -10 -44 -89 0 -42 6 -96 12 -121 10
-37 16 -44 32 -42 30 6 36 22 29 82 -5 49 -4 53 10 41 9 -8 32 -36 52 -63 32
-43 40 -49 68 -46 l31 3 -3 70 c-6 156 -16 185 -56 163z"/>
<path d="M4808 4986 c-42 -25 -86 -47 -98 -51 -22 -7 -27 -44 -9 -62 9 -9 26
-4 68 17 30 16 57 28 58 26 2 -1 -11 -29 -27 -61 -32 -63 -39 -112 -15 -121 8
-3 54 15 102 41 112 60 115 62 102 86 -13 25 -21 24 -81 -6 -28 -14 -53 -24
-55 -22 -2 3 12 31 32 63 40 67 42 83 18 113 l-18 20 -77 -43z"/>
<path d="M4911 4753 c-19 -10 -44 -30 -54 -45 -51 -69 11 -188 99 -188 32 0
106 42 112 63 2 9 8 17 12 17 13 0 18 51 9 84 -19 70 -110 105 -178 69z m103
-59 c23 -23 20 -48 -10 -78 -27 -27 -42 -30 -81 -20 -17 5 -23 14 -23 36 0 58
77 100 114 62z"/>
<path d="M5092 4592 c-10 -7 -11 -14 -1 -36 8 -16 9 -30 3 -35 -9 -9 -67 -43
-117 -69 -20 -10 -27 -20 -25 -35 5 -34 34 -32 110 8 l71 36 23 -22 c25 -23
54 -20 54 6 0 15 -19 55 -59 120 -19 32 -38 40 -59 27z"/>
<path d="M5170 4388 c-19 -11 -56 -31 -82 -45 -67 -35 -76 -49 -51 -74 19 -20
22 -20 51 -5 42 22 45 21 61 -16 13 -29 13 -33 -3 -42 -50 -30 -59 -42 -47
-63 14 -26 30 -23 130 30 103 53 111 61 85 87 -19 19 -22 20 -50 5 -41 -21
-50 -19 -64 16 -12 29 -11 32 21 59 28 24 32 31 23 47 -15 25 -33 25 -74 1z"/>
<path d="M5315 4174 c-100 -52 -175 -96 -175 -103 0 -4 6 -16 14 -27 14 -18
17 -17 108 28 114 56 125 67 101 97 -17 20 -20 20 -48 5z"/>
<path d="M5315 4054 c-33 -19 -69 -38 -80 -43 -35 -15 -49 -39 -35 -56 17 -21
39 -18 85 10 22 14 43 25 47 25 4 0 -9 -31 -29 -68 -40 -75 -41 -122 -3 -122
28 0 200 98 200 114 0 8 -7 19 -16 27 -13 11 -23 9 -65 -14 -58 -31 -60 -24
-20 57 32 63 30 100 -5 103 -10 1 -46 -14 -79 -33z"/>
<path d="M5428 3827 c-15 -7 -39 -23 -53 -35 -56 -49 -18 -202 51 -202 26 0
104 39 104 53 0 4 -9 26 -20 47 -26 50 -60 56 -60 11 0 -35 -15 -48 -35 -31
-22 18 -18 48 10 76 20 20 34 25 63 22 33 -3 39 -8 57 -45 15 -32 25 -42 40
-40 27 3 30 28 8 73 -32 67 -105 98 -165 71z"/>
<path d="M3511 5783 c1 -21 5 -49 9 -63 6 -19 8 -12 9 32 1 31 -3 60 -9 63 -6
4 -10 -9 -9 -32z"/>
<path d="M3630 5170 c-19 -15 -35 -18 -67 -13 -31 4 -43 2 -43 -7 0 -16 112
-8 118 8 2 7 10 12 17 12 8 0 17 5 20 10 10 17 -19 11 -45 -10z"/>
<path d="M3945 5060 c3 -5 8 -10 11 -10 2 0 4 5 4 10 0 6 -5 10 -11 10 -5 0
-7 -4 -4 -10z"/>
<path d="M3960 5015 c0 -15 4 -24 10 -20 6 3 10 12 10 20 0 8 -4 17 -10 20 -6
4 -10 -5 -10 -20z"/>
<path d="M4010 5021 c0 -6 5 -13 10 -16 6 -3 10 1 10 9 0 9 -4 16 -10 16 -5 0
-10 -4 -10 -9z"/>
<path d="M4030 4940 c0 -5 5 -10 10 -10 6 0 10 5 10 10 0 6 -4 10 -10 10 -5 0
-10 -4 -10 -10z"/>
<path d="M3971 4854 c0 -11 3 -14 6 -6 3 7 2 16 -1 19 -3 4 -6 -2 -5 -13z"/>
<path d="M4265 4960 c3 -5 10 -10 16 -10 5 0 9 5 9 10 0 6 -7 10 -16 10 -8 0
-12 -4 -9 -10z"/>
<path d="M4625 2890 c-3 -5 -1 -10 4 -10 6 0 11 5 11 10 0 6 -2 10 -4 10 -3 0
-8 -4 -11 -10z"/>
<path d="M3301 4764 c0 -11 3 -14 6 -6 3 7 2 16 -1 19 -3 4 -6 -2 -5 -13z"/>
<path d="M4585 4385 c4 -17 11 -34 16 -39 5 -5 4 5 -1 24 -12 42 -24 55 -15
15z"/>
<path d="M4640 4245 c0 -5 7 -28 15 -50 9 -26 14 -32 15 -19 0 12 -7 35 -15
50 -8 16 -15 25 -15 19z"/>
<path d="M4651 4044 c0 -11 3 -14 6 -6 3 7 2 16 -1 19 -3 4 -6 -2 -5 -13z"/>
<path d="M3100 4316 c0 -8 5 -18 10 -21 6 -3 10 1 10 9 0 8 -4 18 -10 21 -5 3
-10 -1 -10 -9z"/>
<path d="M3201 4124 c0 -11 3 -14 6 -6 3 7 2 16 -1 19 -3 4 -6 -2 -5 -13z"/>
<path d="M3670 1871 c0 -17 2 -31 4 -31 8 0 13 51 5 56 -5 3 -9 -9 -9 -25z"/>
<path d="M3686 1822 c-8 -24 -3 -37 12 -31 4 2 5 15 2 29 l-6 25 -8 -23z"/>
<path d="M3745 1780 c3 -5 8 -10 11 -10 2 0 4 5 4 10 0 6 -5 10 -11 10 -5 0
-7 -4 -4 -10z"/>
<path d="M3040 4184 c0 -8 5 -12 10 -9 6 3 10 10 10 16 0 5 -4 9 -10 9 -5 0
-10 -7 -10 -16z"/>
<path d="M3030 4135 c1 -26 2 -28 11 -12 8 14 8 22 0 30 -8 8 -11 3 -11 -18z"/>
<path d="M3012 4090 c0 -14 2 -19 5 -12 2 6 2 18 0 25 -3 6 -5 1 -5 -13z"/>
<path d="M3070 4086 c0 -9 5 -16 10 -16 6 0 10 4 10 9 0 6 -4 13 -10 16 -5 3
-10 -1 -10 -9z"/>
<path d="M3155 3910 c3 -5 8 -10 11 -10 2 0 4 5 4 10 0 6 -5 10 -11 10 -5 0
-7 -4 -4 -10z"/>
<path d="M3970 1896 c0 -9 5 -16 10 -16 6 0 10 4 10 9 0 6 -4 13 -10 16 -5 3
-10 -1 -10 -9z"/>
<path d="M955 2040 c-3 -5 -1 -10 4 -10 6 0 11 5 11 10 0 6 -2 10 -4 10 -3 0
-8 -4 -11 -10z"/>
<path d="M865 2031 c-3 -5 -1 -12 5 -16 5 -3 10 1 10 9 0 18 -6 21 -15 7z"/>
<path d="M1127 2025 c3 -8 9 -12 14 -9 12 7 11 11 -5 17 -10 4 -13 1 -9 -8z"/>
<path d="M792 1850 c0 -14 2 -19 5 -12 2 6 2 18 0 25 -3 6 -5 1 -5 -13z"/>
<path d="M895 1860 c3 -5 10 -10 16 -10 5 0 9 5 9 10 0 6 -7 10 -16 10 -8 0
-12 -4 -9 -10z"/>
<path d="M1380 1800 c0 -5 5 -10 10 -10 6 0 10 5 10 10 0 6 -4 10 -10 10 -5 0
-10 -4 -10 -10z"/>
<path d="M1355 1780 c3 -5 8 -10 11 -10 2 0 4 5 4 10 0 6 -5 10 -11 10 -5 0
-7 -4 -4 -10z"/>
<path d="M1397 1770 c-18 -22 -22 -40 -9 -40 11 0 37 48 31 55 -3 2 -13 -5
-22 -15z"/>
<path d="M1323 1741 c-12 -19 -8 -31 9 -31 5 0 6 5 3 10 -3 6 1 13 9 16 19 7
21 24 3 24 -7 0 -18 -9 -24 -19z"/>
<path d="M1055 1741 c-3 -5 -1 -12 5 -16 5 -3 10 1 10 9 0 18 -6 21 -15 7z"/>
<path d="M1256 1715 c-3 -10 -2 -23 4 -29 15 -15 22 -2 12 24 -8 21 -9 22 -16
5z"/>
<path d="M1220 1670 c0 -5 4 -10 9 -10 6 0 13 5 16 10 3 6 -1 10 -9 10 -9 0
-16 -4 -16 -10z"/>
<path d="M1441 1624 c0 -11 3 -14 6 -6 3 7 2 16 -1 19 -3 4 -6 -2 -5 -13z"/>
<path d="M1353 1615 c-16 -17 -17 -35 -3 -35 6 0 10 -6 10 -14 0 -8 7 -17 16
-20 12 -5 15 2 12 36 -3 44 -15 56 -35 33z"/>
<path d="M2847 1483 c-4 -3 -7 -98 -7 -210 0 -189 1 -204 17 -201 25 5 30 41
32 203 1 165 -13 237 -42 208z"/>
<path d="M4895 1468 c-3 -13 -4 -106 -3 -208 3 -168 5 -185 21 -188 16 -3 17
10 15 204 -2 152 -6 208 -15 211 -7 3 -15 -6 -18 -19z"/>
<path d="M3970 1275 c0 -160 2 -195 14 -195 23 0 26 24 26 195 0 171 -3 195
-26 195 -12 0 -14 -35 -14 -195z"/>
<path d="M1730 1375 c-10 -13 -9 -15 9 -15 12 0 21 6 21 15 0 8 -4 15 -9 15
-5 0 -14 -7 -21 -15z"/>
<path d="M1592 1175 c-11 -24 -11 -25 28 -25 l39 0 -25 25 c-14 14 -26 25 -28
25 -1 0 -8 -11 -14 -25z"/>
<path d="M288 1203 c7 -3 16 -2 19 1 4 3 -2 6 -13 5 -11 0 -14 -3 -6 -6z"/>
<path d="M308 1173 c7 -3 16 -2 19 1 4 3 -2 6 -13 5 -11 0 -14 -3 -6 -6z"/>
<path d="M1672 678 c-13 -13 -18 -362 -6 -392 3 -9 12 -16 20 -16 12 0 14 36
14 204 0 113 -4 207 -8 210 -5 3 -14 0 -20 -6z"/>
<path d="M2085 678 c-3 -7 -4 -101 -3 -208 3 -165 5 -195 18 -195 13 0 15 29
15 204 0 155 -3 205 -12 208 -7 3 -15 -1 -18 -9z"/>
<path d="M3037 554 c-2 -5 -6 -43 -8 -84 -4 -69 -2 -75 15 -75 18 0 19 7 17
70 -2 68 -13 107 -24 89z"/>
<path d="M243 677 c4 -10 7 -23 7 -28 0 -5 5 -9 10 -9 15 0 12 20 -7 38 -16
16 -16 16 -10 -1z"/>
<path d="M2640 7480 c0 -6 7 -10 15 -10 8 0 15 2 15 4 0 2 -7 6 -15 10 -8 3
-15 1 -15 -4z"/>
<path d="M2704 7461 c5 -8 56 -3 56 5 0 2 -14 4 -31 4 -16 0 -28 -4 -25 -9z"/>
<path d="M2640 7429 c0 -5 5 -7 10 -4 6 3 10 8 10 11 0 2 -4 4 -10 4 -5 0 -10
-5 -10 -11z"/>
<path d="M2753 7433 c9 -2 23 -2 30 0 6 3 -1 5 -18 5 -16 0 -22 -2 -12 -5z"/>
<path d="M2785 7400 c-18 -8 -17 -9 8 -9 16 -1 26 3 22 9 -3 6 -7 10 -8 9 -1
0 -11 -4 -22 -9z"/>
<path d="M796 6632 c-4 -10 -21 -34 -39 -54 -17 -20 -34 -44 -35 -54 -2 -11
-10 -23 -18 -27 -19 -11 -18 -42 2 -61 24 -25 40 -19 73 26 l31 42 1 -45 c1
-24 0 -56 -1 -70 -1 -20 7 -31 33 -47 37 -21 48 -19 66 16 17 31 34 28 28 -5
-6 -33 13 -83 42 -110 17 -16 35 -20 80 -19 67 1 91 17 122 78 17 34 21 37 39
26 27 -17 26 -20 -16 -75 -63 -82 -68 -123 -16 -123 29 0 72 35 72 58 0 7 5
12 10 12 6 0 10 7 10 15 0 8 4 15 9 15 5 0 11 9 14 21 5 17 9 19 26 9 12 -6
21 -16 21 -23 0 -7 4 -6 10 3 8 13 10 13 10 -2 0 -9 -7 -23 -15 -32 -8 -8 -15
-17 -15 -21 0 -4 -14 -26 -30 -50 -16 -24 -30 -50 -30 -57 0 -8 17 -24 38 -35
l39 -20 -4 21 c-3 13 4 29 16 40 20 18 22 18 39 3 10 -10 22 -14 25 -10 4 3 7
1 7 -5 0 -7 -4 -12 -10 -12 -15 0 -24 -68 -10 -85 23 -28 55 -18 76 22 10 21
22 42 26 48 4 5 24 32 43 58 29 40 34 51 25 68 -16 28 -83 24 -88 -6 -6 -33
-19 -38 -46 -19 -26 19 -35 44 -16 44 6 0 15 11 22 25 14 32 -4 55 -43 55 -18
0 -29 5 -29 14 0 13 -61 66 -75 66 -3 0 -21 11 -39 25 -20 15 -40 22 -52 19
-16 -4 -24 2 -34 27 -10 23 -27 38 -66 56 -50 23 -55 23 -90 8 -51 -21 -59
-19 -40 10 22 34 20 52 -9 71 -20 13 -28 14 -40 4 -8 -7 -15 -18 -15 -25 0
-11 -31 -45 -41 -45 -3 0 -6 28 -7 62 -2 34 -8 68 -14 75 -16 20 -66 16 -72
-5z m174 -192 c0 -5 -5 -10 -11 -10 -5 0 -7 5 -4 10 3 6 8 10 11 10 2 0 4 -4
4 -10z m136 -37 c19 -25 17 -39 -8 -73 -25 -34 -53 -39 -68 -11 -12 23 -5 48
23 79 25 27 36 28 53 5z"/>
<path d="M2680 6331 c0 -11 31 -24 39 -16 3 3 -1 10 -9 15 -19 12 -30 12 -30
1z"/>
<path d="M1564 6058 c-26 -40 -53 -83 -61 -95 -18 -27 -2 -63 28 -63 19 0 72
46 76 67 1 5 18 34 38 64 43 66 43 93 -2 97 -29 3 -35 -2 -79 -70z"/>
<path d="M1676 6040 c-20 -28 -36 -53 -36 -57 0 -3 -6 -14 -13 -22 -8 -9 -24
-33 -36 -53 l-22 -37 30 -16 c29 -14 32 -14 50 4 10 10 23 27 29 37 15 27 20
16 28 -52 8 -70 17 -84 55 -84 23 0 31 7 42 33 8 17 22 39 32 47 17 14 17 14
2 -17 -10 -18 -17 -43 -17 -57 0 -31 37 -96 55 -96 7 0 15 -6 17 -12 3 -7 11
-13 19 -13 8 -1 27 -5 42 -9 23 -7 31 -5 43 12 8 12 21 28 29 36 8 8 20 27 25
42 9 22 7 30 -9 45 -11 11 -27 19 -35 19 -8 0 -18 5 -21 10 -10 17 -34 11 -45
-11 -9 -16 -8 -24 4 -38 20 -21 20 -31 3 -31 -23 0 -48 35 -41 56 21 58 73 70
122 29 17 -14 32 -25 35 -25 14 0 37 34 37 55 0 20 -11 29 -57 51 -57 25 -93
28 -150 9 -23 -7 -23 -7 -8 28 8 20 12 42 9 51 -6 17 -57 32 -62 18 -1 -5 -14
-24 -27 -42 l-25 -34 0 65 c0 57 -3 68 -25 87 -14 12 -29 22 -34 22 -5 0 -25
-23 -45 -50z"/>
<path d="M2560 5951 c0 -6 5 -13 10 -16 6 -3 10 1 10 9 0 9 -4 16 -10 16 -5 0
-10 -4 -10 -9z"/>
<path d="M1978 5943 c7 -3 16 -2 19 1 4 3 -2 6 -13 5 -11 0 -14 -3 -6 -6z"/>
<path d="M2440 5714 c0 -8 5 -12 10 -9 6 3 10 10 10 16 0 5 -4 9 -10 9 -5 0
-10 -7 -10 -16z"/>
<path d="M7100 4554 c-15 -40 -13 -84 5 -84 9 0 20 10 25 23 l9 22 6 -22 c9
-30 36 -38 52 -16 12 16 14 16 29 -5 11 -16 25 -22 54 -22 42 0 60 18 60 60 0
13 5 20 13 17 7 -2 12 -20 12 -43 0 -52 28 -55 35 -4 3 23 11 36 23 38 14 3
17 -4 17 -42 0 -50 10 -56 40 -26 21 21 27 60 9 60 -5 0 -8 4 -4 9 7 12 -13
25 -40 28 -11 2 -36 5 -56 9 -23 4 -39 2 -44 -6 -4 -7 -11 -8 -18 -2 -27 21
-66 23 -85 4 -18 -18 -19 -18 -28 1 -12 27 -28 27 -32 0 -4 -30 -16 -29 -30 2
-15 32 -40 32 -52 -1z m200 -43 c0 -10 -7 -24 -15 -31 -12 -10 -16 -9 -21 4
-3 9 -4 23 0 31 8 21 36 19 36 -4z"/>
<path d="M0 1070 c0 -13 7 -20 19 -20 30 0 33 16 6 28 -22 10 -25 9 -25 -8z"/>
<path d="M610 840 c0 -5 5 -10 10 -10 6 0 10 5 10 10 0 6 -4 10 -10 10 -5 0
-10 -4 -10 -10z"/>
<path d="M712 825 c-7 -14 -12 -37 -12 -50 0 -20 -5 -25 -27 -26 -16 -1 -32
-1 -36 0 -5 1 -6 -3 -2 -9 3 -6 11 -8 16 -5 5 4 9 2 9 -4 0 -14 71 -6 81 10 6
10 9 11 9 2 0 -7 5 -13 11 -13 11 0 39 25 39 35 0 10 -28 35 -39 35 -6 0 -11
-5 -11 -11 0 -6 -7 -4 -15 5 -17 17 -20 36 -5 36 6 0 10 5 10 10 0 19 -17 10
-28 -15z"/>
<path d="M857 713 c-4 -3 -7 -15 -7 -25 0 -22 32 -24 49 -4 10 12 8 17 -8 25
-23 13 -26 13 -34 4z"/>
<path d="M353 613 c-13 -2 -23 -9 -23 -14 0 -14 30 -11 46 6 9 8 12 14 7 14
-4 -1 -18 -4 -30 -6z"/>
<path d="M40 525 c0 -21 28 -31 43 -16 9 9 8 14 -3 21 -22 14 -40 12 -40 -5z"/>
<path d="M0 440 c0 -44 4 -80 9 -80 9 0 25 56 22 77 -1 6 3 14 9 18 5 3 10 11
10 16 0 6 -5 7 -10 4 -6 -4 -10 5 -10 19 0 16 -6 26 -15 26 -12 0 -15 -16 -15
-80z"/>
<path d="M256 459 l-29 -29 35 0 c19 0 38 3 42 8 4 4 12 8 17 8 5 1 11 2 14 3
9 2 -29 41 -40 40 -5 0 -23 -14 -39 -30z"/>
<path d="M530 440 c0 -5 7 -10 15 -10 8 0 15 5 15 10 0 6 -7 10 -15 10 -8 0
-15 -4 -15 -10z"/>
<path d="M138 433 c6 -2 18 -2 25 0 6 3 1 5 -13 5 -14 0 -19 -2 -12 -5z"/>
</g>
</svg>
